<?xml version="1.0" encoding="UTF-8"?>
<!--Generator: Apple Native CoreSVG 341-->
<!DOCTYPE svg
PUBLIC "-//W3C//DTD SVG 1.1//EN"
       "http://www.w3.org/Graphics/SVG/1.1/DTD/svg11.dtd">
<svg version="1.1" xmlns="http://www.w3.org/2000/svg" xmlns:xlink="http://www.w3.org/1999/xlink" viewBox="0 0 3300 2200">
 <!--glyph: "", point size: 100.0, font version: "21.1d1e1", template writer version: "138.0.0"-->
 <style>.defaults {-sfsymbols-variable-value-mode:color;-sfsymbols-draw-reverses-motion-groups:false}

.monochrome-0 {-sfsymbols-motion-group:1;-sfsymbols-layer-tags:-25ee0e6edb9b1f34 _enclosure.fill square}
.monochrome-1 {opacity:0.0;-sfsymbols-clear-behind:true;-sfsymbols-motion-group:0;-sfsymbols-always-pulses:true;-sfsymbols-layer-tags:-25ee0e6edb9b1f34 -76a1ecd59088797e}
.monochrome-2 {opacity:0.0;-sfsymbols-clear-behind:true;-sfsymbols-motion-group:0;-sfsymbols-always-pulses:true;-sfsymbols-layer-tags:-25ee0e6edb9b1f34 -76a1ecd59088797e}

.multicolor-0:tintColor {-sfsymbols-motion-group:1;-sfsymbols-layer-tags:-25ee0e6edb9b1f34 _enclosure.fill square}
.multicolor-1:white {-sfsymbols-motion-group:0;-sfsymbols-always-pulses:true;-sfsymbols-layer-tags:-25ee0e6edb9b1f34 -76a1ecd59088797e}
.multicolor-2:white {-sfsymbols-motion-group:0;-sfsymbols-always-pulses:true;-sfsymbols-layer-tags:-25ee0e6edb9b1f34 -76a1ecd59088797e}

.hierarchical-0:tertiary {-sfsymbols-motion-group:1;-sfsymbols-layer-tags:-25ee0e6edb9b1f34 _enclosure.fill square}
.hierarchical-1:primary {-sfsymbols-motion-group:0;-sfsymbols-always-pulses:true;-sfsymbols-layer-tags:-25ee0e6edb9b1f34 -76a1ecd59088797e}
.hierarchical-2:primary {-sfsymbols-motion-group:0;-sfsymbols-always-pulses:true;-sfsymbols-layer-tags:-25ee0e6edb9b1f34 -76a1ecd59088797e}

.SFSymbolsPreviewWireframe {fill:none;opacity:1.0;stroke:black;stroke-width:0.5}
</style>
 <g id="Notes">
  <rect height="2200" id="artboard" style="fill:white;opacity:1" width="3300" x="0" y="0"/>
  <line style="fill:none;stroke:black;opacity:1;stroke-width:0.5;" x1="263" x2="3036" y1="292" y2="292"/>
  <text style="stroke:none;fill:black;font-family:sans-serif;font-size:13;font-weight:bold;" transform="matrix(1 0 0 1 263 322)">Weight/Scale Variations</text>
  <text style="stroke:none;fill:black;font-family:sans-serif;font-size:13;text-anchor:middle;" transform="matrix(1 0 0 1 559.711 322)">Ultralight</text>
  <text style="stroke:none;fill:black;font-family:sans-serif;font-size:13;text-anchor:middle;" transform="matrix(1 0 0 1 856.422 322)">Thin</text>
  <text style="stroke:none;fill:black;font-family:sans-serif;font-size:13;text-anchor:middle;" transform="matrix(1 0 0 1 1153.13 322)">Light</text>
  <text style="stroke:none;fill:black;font-family:sans-serif;font-size:13;text-anchor:middle;" transform="matrix(1 0 0 1 1449.84 322)">Regular</text>
  <text style="stroke:none;fill:black;font-family:sans-serif;font-size:13;text-anchor:middle;" transform="matrix(1 0 0 1 1746.56 322)">Medium</text>
  <text style="stroke:none;fill:black;font-family:sans-serif;font-size:13;text-anchor:middle;" transform="matrix(1 0 0 1 2043.27 322)">Semibold</text>
  <text style="stroke:none;fill:black;font-family:sans-serif;font-size:13;text-anchor:middle;" transform="matrix(1 0 0 1 2339.98 322)">Bold</text>
  <text style="stroke:none;fill:black;font-family:sans-serif;font-size:13;text-anchor:middle;" transform="matrix(1 0 0 1 2636.69 322)">Heavy</text>
  <text style="stroke:none;fill:black;font-family:sans-serif;font-size:13;text-anchor:middle;" transform="matrix(1 0 0 1 2933.4 322)">Black</text>
  <line style="fill:none;stroke:black;opacity:1;stroke-width:0.5;" x1="263" x2="3036" y1="1903" y2="1903"/>
  <g transform="matrix(0.2 0 0 0.2 263 1933)">
   <path d="m46.2402 4.15039c21.7773 0 39.4531-17.627 39.4531-39.4043s-17.6758-39.4043-39.4531-39.4043c-21.7285 0-39.4043 17.627-39.4043 39.4043s17.6758 39.4043 39.4043 39.4043Zm0-7.42188c-17.6758 0-31.9336-14.3066-31.9336-31.9824s14.2578-31.9824 31.9336-31.9824 31.9824 14.3066 31.9824 31.9824-14.3066 31.9824-31.9824 31.9824Zm3.61328-17.7734v-28.4668c0-2.24609-1.46484-3.75977-3.71094-3.75977-2.14844 0-3.61328 1.51367-3.61328 3.75977v28.4668c0 2.19727 1.46484 3.71094 3.61328 3.71094 2.24609 0 3.71094-1.51367 3.71094-3.71094Zm-17.8223-10.5957h28.418c2.19727 0 3.71094-1.46484 3.71094-3.61328 0-2.19727-1.51367-3.71094-3.71094-3.71094h-28.418c-2.24609 0-3.75977 1.51367-3.75977 3.71094 0 2.14844 1.51367 3.61328 3.75977 3.61328Z"/>
  </g>
  <g transform="matrix(0.2 0 0 0.2 281.506 1933)">
   <path d="m58.5449 14.5508c27.4902 0 49.8047-22.3145 49.8047-49.8047s-22.3145-49.8047-49.8047-49.8047-49.8047 22.3145-49.8047 49.8047 22.3145 49.8047 49.8047 49.8047Zm0-8.30078c-22.9492 0-41.5039-18.5547-41.5039-41.5039s18.5547-41.5039 41.5039-41.5039 41.5039 18.5547 41.5039 41.5039-18.5547 41.5039-41.5039 41.5039Zm4.05273-23.0957v-36.9141c0-2.49023-1.70898-4.19922-4.15039-4.19922-2.39258 0-4.05273 1.70898-4.05273 4.19922v36.9141c0 2.44141 1.66016 4.15039 4.05273 4.15039 2.44141 0 4.15039-1.66016 4.15039-4.15039Zm-22.5586-14.4043h36.9629c2.44141 0 4.15039-1.61133 4.15039-4.00391 0-2.44141-1.70898-4.15039-4.15039-4.15039h-36.9629c-2.49023 0-4.15039 1.70898-4.15039 4.15039 0 2.39258 1.66016 4.00391 4.15039 4.00391Z"/>
  </g>
  <g transform="matrix(0.2 0 0 0.2 304.924 1933)">
   <path d="m74.8535 28.3203c35.1074 0 63.623-28.4668 63.623-63.5742s-28.5156-63.623-63.623-63.623-63.5742 28.5156-63.5742 63.623 28.4668 63.5742 63.5742 63.5742Zm0-9.08203c-30.127 0-54.4922-24.3652-54.4922-54.4922s24.3652-54.4922 54.4922-54.4922 54.4922 24.3652 54.4922 54.4922-24.3652 54.4922-54.4922 54.4922Zm4.44336-30.3223v-48.4863c0-2.73438-1.85547-4.63867-4.54102-4.63867-2.58789 0-4.44336 1.9043-4.44336 4.63867v48.4863c0 2.68555 1.85547 4.58984 4.44336 4.58984 2.68555 0 4.54102-1.85547 4.54102-4.58984Zm-28.7109-19.7754h48.4863c2.68555 0 4.58984-1.80664 4.58984-4.39453 0-2.73438-1.85547-4.58984-4.58984-4.58984h-48.4863c-2.73438 0-4.58984 1.85547-4.58984 4.58984 0 2.58789 1.85547 4.39453 4.58984 4.39453Z"/>
  </g>
  <text style="stroke:none;fill:black;font-family:sans-serif;font-size:13;font-weight:bold;" transform="matrix(1 0 0 1 263 1953)">Design Variations</text>
  <text style="stroke:none;fill:black;font-family:sans-serif;font-size:13;" transform="matrix(1 0 0 1 263 1971)">Symbols are supported in up to nine weights and three scales.</text>
  <text style="stroke:none;fill:black;font-family:sans-serif;font-size:13;" transform="matrix(1 0 0 1 263 1989)">For optimal layout with text and other symbols, vertically align</text>
  <text style="stroke:none;fill:black;font-family:sans-serif;font-size:13;" transform="matrix(1 0 0 1 263 2007)">symbols with the adjacent text.</text>
  <line style="fill:none;stroke:#00AEEF;stroke-width:0.5;opacity:1.0;" x1="776" x2="776" y1="1919" y2="1933"/>
  <g transform="matrix(0.2 0 0 0.2 776 1933)">
   <path d="m16.5527 0.78125c2.58789 0 3.85742-0.976562 4.78516-3.71094l20.5566-57.5195h0.244141l20.6055 57.5195c0.927734 2.73438 2.19727 3.71094 4.73633 3.71094 2.58789 0 4.24805-1.5625 4.24805-4.00391 0-0.830078-0.146484-1.61133-0.537109-2.63672l-22.9004-60.9863c-1.12305-2.97852-3.125-4.49219-6.25-4.49219-3.02734 0-5.07812 1.46484-6.15234 4.44336l-22.9004 61.084c-0.390625 1.02539-0.537109 1.80664-0.537109 2.63672 0 2.44141 1.5625 3.95508 4.10156 3.95508Zm10.2051-20.9473h30.6641c2.00195 0 3.66211-1.66016 3.66211-3.66211 0-2.05078-1.66016-3.66211-3.66211-3.66211h-30.6641c-2.00195 0-3.66211 1.61133-3.66211 3.66211 0 2.00195 1.66016 3.66211 3.66211 3.66211Z"/>
  </g>
  <line style="fill:none;stroke:#00AEEF;stroke-width:0.5;opacity:1.0;" x1="792.836" x2="792.836" y1="1919" y2="1933"/>
  <text style="stroke:none;fill:black;font-family:sans-serif;font-size:13;font-weight:bold;" transform="matrix(1 0 0 1 776 1953)">Margins</text>
  <text style="stroke:none;fill:black;font-family:sans-serif;font-size:13;" transform="matrix(1 0 0 1 776 1971)">Leading and trailing margins on the left and right side of each symbol</text>
  <text style="stroke:none;fill:black;font-family:sans-serif;font-size:13;" transform="matrix(1 0 0 1 776 1989)">can be adjusted by modifying the x-location of the margin guidelines.</text>
  <text style="stroke:none;fill:black;font-family:sans-serif;font-size:13;" transform="matrix(1 0 0 1 776 2007)">Modifications are automatically applied proportionally to all</text>
  <text style="stroke:none;fill:black;font-family:sans-serif;font-size:13;" transform="matrix(1 0 0 1 776 2025)">scales and weights.</text>
  <g transform="matrix(0.2 0 0 0.2 1289 1933)">
   <path d="m14.209 13.1348 7.86133 7.86133c4.29688 4.39453 9.32617 4.10156 13.8672-1.02539l60.6934-68.2129-4.88281-4.88281-60.2539 67.6758c-1.80664 1.95312-3.4668 2.44141-5.81055 0.0976562l-5.17578-5.12695c-2.29492-2.29492-1.80664-3.95508 0.195312-5.81055l67.4805-62.1582-4.88281-4.83398-68.0664 62.5977c-4.98047 4.58984-5.32227 9.47266-1.02539 13.8184Zm44.873-97.4609c-2.05078 2.00195-2.24609 4.88281-1.07422 6.78711 1.12305 1.80664 3.4668 3.02734 6.5918 2.24609 5.85938-1.66016 12.5977-2.39258 18.8965 0.927734l-2.68555 7.12891c-1.61133 4.00391-0.732422 6.88477 1.70898 9.42383l10.2539 10.3027c2.34375 2.39258 4.54102 2.44141 7.08008 1.95312l4.44336-0.732422 2.58789 2.53906-0.195312 2.24609c-0.0976562 2.29492 0.537109 4.29688 2.7832 6.49414l3.36914 3.32031c2.29492 2.29492 5.51758 2.49023 7.8125 0.195312l12.9883-13.0371c2.29492-2.34375 2.14844-5.37109-0.195312-7.66602l-3.41797-3.41797c-2.19727-2.19727-4.05273-3.02734-6.34766-2.88086l-2.34375 0.244141-2.44141-2.44141 1.02539-4.6875c0.634766-2.73438-0.244141-4.98047-2.88086-7.61719l-11.2793-11.1816c-12.9395-12.8418-35.5957-11.0352-46.6797-0.146484Zm7.08008 2.05078c8.78906-6.39648 25.9766-5.66406 33.6914 1.95312l12.3047 12.207c1.02539 1.02539 1.2207 1.80664 0.927734 3.32031l-1.46484 6.64062 6.73828 6.68945 4.39453-0.244141c1.12305-0.0488281 1.51367 0.0488281 2.34375 0.878906l2.53906 2.49023-10.8398 10.8398-2.49023-2.49023c-0.830078-0.878906-0.976562-1.2207-0.927734-2.39258l0.292969-4.3457-6.68945-6.73828-6.83594 1.17188c-1.41602 0.292969-2.05078 0.195312-3.17383-0.878906l-8.93555-8.88672c-1.07422-1.02539-1.17188-1.70898-0.488281-3.36914l4.58984-11.4746c-6.10352-6.34766-17.041-7.51953-25.5859-4.58984-0.683594 0.244141-0.927734-0.390625-0.390625-0.78125Z"/>
  </g>
  <text style="stroke:none;fill:black;font-family:sans-serif;font-size:13;font-weight:bold;" transform="matrix(1 0 0 1 1289 1953)">Exporting</text>
  <text style="stroke:none;fill:black;font-family:sans-serif;font-size:13;" transform="matrix(1 0 0 1 1289 1971)">Symbols should be outlined when exporting to ensure the</text>
  <text style="stroke:none;fill:black;font-family:sans-serif;font-size:13;" transform="matrix(1 0 0 1 1289 1989)">design is preserved when submitting to Xcode.</text>
  <text id="template-version" style="stroke:none;fill:black;font-family:sans-serif;font-size:13;text-anchor:end;" transform="matrix(1 0 0 1 3036 1933)">Template v.7.0</text>
  <text style="stroke:none;fill:black;font-family:sans-serif;font-size:13;text-anchor:end;" transform="matrix(1 0 0 1 3036 1951)">Requires Xcode 26 or greater</text>
  <text id="descriptive-name" style="stroke:none;fill:black;font-family:sans-serif;font-size:13;text-anchor:end;" transform="matrix(1 0 0 1 3036 1969)">Generated from square.fill</text>
  <text style="stroke:none;fill:black;font-family:sans-serif;font-size:13;text-anchor:end;" transform="matrix(1 0 0 1 3036 1987)">Typeset at 100.0 points</text>
  <text style="stroke:none;fill:black;font-family:sans-serif;font-size:13;" transform="matrix(1 0 0 1 263 726)">Small</text>
  <text style="stroke:none;fill:black;font-family:sans-serif;font-size:13;" transform="matrix(1 0 0 1 263 1156)">Medium</text>
  <text style="stroke:none;fill:black;font-family:sans-serif;font-size:13;" transform="matrix(1 0 0 1 263 1586)">Large</text>
 </g>
 <g id="Guides">
  <g id="H-reference" style="fill:#27AAE1;stroke:none;" transform="matrix(1 0 0 1 339 696)">
   <path d="M0.993654 0L3.63775 0L29.3281-67.1323L30.0303-67.1323L30.0303-70.459L28.1226-70.459ZM11.6885-24.4799L46.9815-24.4799L46.2315-26.7285L12.4385-26.7285ZM55.1196 0L57.7637 0L30.6382-70.459L29.4326-70.459L29.4326-67.1323Z"/>
  </g>
  <line id="Baseline-S" style="fill:none;stroke:#27AAE1;opacity:1;stroke-width:0.5;" x1="263" x2="3036" y1="696" y2="696"/>
  <line id="Capline-S" style="fill:none;stroke:#27AAE1;opacity:1;stroke-width:0.5;" x1="263" x2="3036" y1="625.541" y2="625.541"/>
  <g id="H-reference" style="fill:#27AAE1;stroke:none;" transform="matrix(1 0 0 1 339 1126)">
   <path d="M0.993654 0L3.63775 0L29.3281-67.1323L30.0303-67.1323L30.0303-70.459L28.1226-70.459ZM11.6885-24.4799L46.9815-24.4799L46.2315-26.7285L12.4385-26.7285ZM55.1196 0L57.7637 0L30.6382-70.459L29.4326-70.459L29.4326-67.1323Z"/>
  </g>
  <line id="Baseline-M" style="fill:none;stroke:#27AAE1;opacity:1;stroke-width:0.5;" x1="263" x2="3036" y1="1126" y2="1126"/>
  <line id="Capline-M" style="fill:none;stroke:#27AAE1;opacity:1;stroke-width:0.5;" x1="263" x2="3036" y1="1055.54" y2="1055.54"/>
  <g id="H-reference" style="fill:#27AAE1;stroke:none;" transform="matrix(1 0 0 1 339 1556)">
   <path d="M0.993654 0L3.63775 0L29.3281-67.1323L30.0303-67.1323L30.0303-70.459L28.1226-70.459ZM11.6885-24.4799L46.9815-24.4799L46.2315-26.7285L12.4385-26.7285ZM55.1196 0L57.7637 0L30.6382-70.459L29.4326-70.459L29.4326-67.1323Z"/>
  </g>
  <line id="Baseline-L" style="fill:none;stroke:#27AAE1;opacity:1;stroke-width:0.5;" x1="263" x2="3036" y1="1556" y2="1556"/>
  <line id="Capline-L" style="fill:none;stroke:#27AAE1;opacity:1;stroke-width:0.5;" x1="263" x2="3036" y1="1485.54" y2="1485.54"/>
  <line id="right-margin-Black-S" style="fill:none;stroke:#00AEEF;stroke-width:0.5;opacity:1.0;" x1="2981.3" x2="2981.3" y1="600.785" y2="720.121"/>
  <line id="left-margin-Black-S" style="fill:none;stroke:#00AEEF;stroke-width:0.5;opacity:1.0;" x1="2885.5" x2="2885.5" y1="600.785" y2="720.121"/>
  <line id="right-margin-Regular-S" style="fill:none;stroke:#00AEEF;stroke-width:0.5;opacity:1.0;" x1="1495.18" x2="1495.18" y1="600.785" y2="720.121"/>
  <line id="left-margin-Regular-S" style="fill:none;stroke:#00AEEF;stroke-width:0.5;opacity:1.0;" x1="1404.51" x2="1404.51" y1="600.785" y2="720.121"/>
  <line id="right-margin-Ultralight-S" style="fill:none;stroke:#00AEEF;stroke-width:0.5;opacity:1.0;" x1="603.073" x2="603.073" y1="600.785" y2="720.121"/>
  <line id="left-margin-Ultralight-S" style="fill:none;stroke:#00AEEF;stroke-width:0.5;opacity:1.0;" x1="516.35" x2="516.35" y1="600.785" y2="720.121"/>
 </g>
 <g id="Symbols">
  <g id="Black-S" transform="matrix(1 0 0 1 2885.5 696)">
   <path class="monochrome-0 multicolor-0:tintColor hierarchical-0:tertiary SFSymbolsPreviewWireframe" d="M25 2.88086L70.8008 2.88086C80.3711 2.88086 86.0352-2.7832 86.0352-12.3535L86.0352-58.1543C86.0352-67.7246 80.3711-73.3887 70.8008-73.3887L25-73.3887C15.4297-73.3887 9.76562-67.7246 9.76562-58.1543L9.76562-12.3535C9.76562-2.7832 15.4297 2.88086 25 2.88086Z"/>
   <path class="monochrome-1 multicolor-1:white hierarchical-1:primary SFSymbolsPreviewWireframe" d="M67.2996-34.7449C66.8723-34.7462 66.2667-34.7135 65.9537-34.6722C65.6407-34.6309 65.0979-34.5315 64.7472-34.4515C64.3966-34.3715 63.8237-34.206 63.4741-34.0839C63.1245-33.9618 62.5155-33.6997 62.1209-33.5015C61.7263-33.3032 61.2027-33.0053 60.9571-32.8395C60.7115-32.6737 60.2975-32.3687 60.0374-32.1619C59.7773-31.9551 59.2699-31.4774 58.9098-31.1C58.5497-30.7226 58.0562-30.1202 57.813-29.7614C57.57-29.4027 57.2539-28.8963 57.1107-28.6362C56.9675-28.3761 56.7322-27.8778 56.5879-27.5287C56.4436-27.1798 56.2436-26.5906 56.1434-26.2194C56.0432-25.8481 55.9125-25.2254 55.8532-24.8356C55.7938-24.4457 55.7459-23.6927 55.7466-23.1622C55.7473-22.6318 55.7937-21.9033 55.8495-21.5431C55.9053-21.1831 55.9877-20.7246 56.0325-20.5246C56.0772-20.3245 56.1979-19.899 56.3008-19.5789C56.4037-19.2588 56.6959-18.5712 56.9501-18.051C57.2044-17.5309 57.6332-16.7996 57.9028-16.4261C58.1725-16.0526 58.6729-15.4617 59.0152-15.1128C59.3573-14.764 59.8666-14.2993 60.1467-14.0803C60.4267-13.8613 60.8688-13.5468 61.1288-13.3814C61.3889-13.2159 61.8309-12.9662 62.111-12.8262C62.3911-12.6862 62.8165-12.4901 63.0566-12.3907C63.2967-12.2913 63.7222-12.1433 64.0023-12.0615C64.2824-11.9798 64.7736-11.8592 65.0936-11.7934C65.4138-11.7277 66.0194-11.6488 66.4395-11.6183C66.8596-11.5877 67.3671-11.5731 67.5672-11.5857C67.7673-11.5982 68.1727-11.6265 68.4683-11.6484C68.7639-11.6704 69.2551-11.739 69.5597-11.801C69.8643-11.863 70.3918-11.997 70.7318-12.0988C71.072-12.2005 71.7267-12.4617 72.1869-12.6792C72.6471-12.8968 73.2364-13.2114 73.4967-13.3785C73.7562-13.5455 74.1984-13.8613 74.4785-14.0803C74.7585-14.2993 75.2678-14.764 75.61-15.1128C75.9522-15.4617 76.4527-16.0526 76.7222-16.4261C76.9917-16.7996 77.4202-17.5309 77.6749-18.051C77.9288-18.5712 78.2213-19.2588 78.3244-19.5789C78.4276-19.899 78.548-20.3245 78.5927-20.5246C78.6374-20.7246 78.7201-21.1831 78.7759-21.5431C78.8319-21.9033 78.8778-22.6318 78.8784-23.1622C78.879-23.6927 78.8312-24.4457 78.7716-24.8356C78.7126-25.2254 78.5822-25.8481 78.4815-26.2194C78.3816-26.5906 78.1816-27.1798 78.0369-27.5287C77.8929-27.8778 77.6575-28.3761 77.514-28.6362C77.3712-28.8963 77.0551-29.4027 76.8116-29.7614C76.5688-30.1202 76.0751-30.7226 75.7149-31.1C75.3547-31.4774 74.8473-31.9551 74.5878-32.1619C74.3276-32.3687 73.9177-32.6712 73.6767-32.8339C73.4358-32.9966 72.9116-33.294 72.5123-33.4949C72.113-33.6958 71.4988-33.9611 71.1467-34.0846C70.7942-34.2081 70.2868-34.3616 70.0188-34.4255C69.7507-34.4894 69.2039-34.5867 68.8038-34.642C68.4037-34.6972 67.7268-34.7436 67.2996-34.7449ZM66.9514-28.418C67.1648-28.418 67.2642-28.3735 67.3801-28.2263C67.5293-28.0366 67.5308-27.9833 67.5285-23.152C67.5266-19.2615 67.507-18.2441 67.4317-18.1449C67.3797-18.0765 67.2567-17.9899 67.1585-17.9525C67.0366-17.9061 66.8903-17.9154 66.6982-17.9815C66.5409-18.0355 66.2206-18.2683 65.9731-18.5087C65.7294-18.7454 65.0907-19.3531 64.5536-19.8591C63.5771-20.7791 63.5771-20.7792 62.6258-20.781C62.1026-20.782 61.5271-20.8167 61.347-20.8581C61.167-20.8994 60.9294-21.0195 60.8191-21.125C60.7089-21.2304 60.5861-21.433 60.5467-21.5753C60.5071-21.7176 60.4746-22.4574 60.4744-23.2192C60.474-24.5128 60.4847-24.6252 60.6376-24.9234C60.7394-25.1217 60.8973-25.2927 61.0549-25.3752C61.2683-25.4869 61.4855-25.508 62.4285-25.508C63.5486-25.508 63.5487-25.5079 64.45-26.3627C64.9456-26.8328 65.6486-27.4877 66.0123-27.8178C66.5979-28.3492 66.7055-28.418 66.9514-28.418ZM72.1005-27.4721C72.1776-27.4721 72.3192-27.4098 72.416-27.3336C72.5129-27.2575 72.7607-26.8724 72.9669-26.478C73.201-26.0311 73.4134-25.4868 73.5314-25.0341C73.645-24.5946 73.7364-24.0058 73.7605-23.5437C73.7885-23.0265 73.7656-22.5431 73.6892-22.0466C73.627-21.6433 73.4768-21.0394 73.3544-20.7048C73.232-20.3702 73.0011-19.875 72.8402-19.6044C72.6794-19.3337 72.4757-19.0619 72.3875-19.0001C72.2993-18.9383 72.1732-18.8877 72.1074-18.8877C72.0422-18.8877 71.9018-18.9556 71.7962-19.0385C71.6746-19.1346 71.605-19.2598 71.605-19.384C71.6056-19.4911 71.6727-19.677 71.7547-19.7971C71.8367-19.9171 72.0012-20.2058 72.121-20.4387C72.2409-20.6715 72.4024-21.0642 72.4794-21.3116C72.5564-21.5589 72.657-22.0746 72.7036-22.4574C72.7675-22.9854 72.7675-23.3262 72.7036-23.8693C72.657-24.2629 72.5365-24.8337 72.4359-25.1375C72.3347-25.4413 72.1204-25.9189 71.9596-26.1989C71.7988-26.479 71.6497-26.7961 71.628-26.9035C71.5988-27.0494 71.6361-27.146 71.7751-27.2855C71.8783-27.3881 72.0242-27.4721 72.1005-27.4721ZM69.9662-25.8717C70.0564-25.8717 70.2106-25.8084 70.3088-25.7311C70.407-25.6538 70.5943-25.3589 70.7248-25.0757C70.8554-24.7925 71.0102-24.2912 71.0693-23.9615C71.1404-23.5629 71.1603-23.179 71.1287-22.8163C71.1019-22.5162 71.0011-22.0181 70.9039-21.7093C70.8066-21.4006 70.6202-21.0079 70.4898-20.8364C70.2991-20.5858 70.2014-20.5201 69.9913-20.5024C69.7797-20.4845 69.7006-20.5178 69.576-20.6761C69.4914-20.7836 69.4222-20.9118 69.4222-20.9608C69.4222-21.0098 69.518-21.2293 69.6351-21.4488C69.7522-21.6682 69.9036-22.039 69.9716-22.2728C70.0642-22.5916 70.0868-22.8733 70.0614-23.4009C70.031-24.0323 69.9993-24.1614 69.7521-24.6616C69.6007-24.9681 69.4768-25.3062 69.4768-25.4133C69.4768-25.5272 69.5444-25.6629 69.6395-25.7399C69.7289-25.8123 69.876-25.8717 69.9662-25.8717Z"/>
   <path class="monochrome-2 multicolor-2:white hierarchical-2:primary SFSymbolsPreviewWireframe" d="M47.1116-54.6178C29.8861-54.6178 22.3926-54.5673 21.8163-54.4475C21.3659-54.3539 20.5631-54.0661 20.032-53.8081C19.501-53.5502 18.8-53.0505 18.4745-52.6973C18.149-52.3441 17.7048-51.6756 17.4875-51.2118C17.2702-50.748 17.0151-49.9998 16.9204-49.5494C16.8015-48.9844 16.7481-44.6639 16.7481-35.6115C16.7481-26.6307 16.802-22.2341 16.9189-21.6736C17.0129-21.2232 17.2897-20.4301 17.5342-19.9112C17.7942-19.3594 18.2734-18.696 18.6883-18.3135C19.0786-17.9538 19.7229-17.5141 20.1203-17.3365C20.5177-17.1588 21.1907-16.9276 21.6156-16.8227C22.2114-16.6755 28.0259-16.6294 47.0342-16.621C50.8329-16.6193 54.0654-16.6189 56.8173-16.6205L56.8173-16.6205C56.1616-17.6887 55.6716-18.8501 55.3642-20.0652C53.0397-20.062 50.3826-20.0592 47.3434-20.0559C34.043-20.0415 22.9828-20.0841 22.7653-20.1506C22.5479-20.2171 22.2005-20.359 21.9929-20.4661C21.7854-20.5732 21.4246-20.8389 21.191-21.0566C20.9576-21.2743 20.6273-21.8249 20.4571-22.2798C20.1569-23.0822 20.1476-23.4792 20.1476-35.512C20.1476-46.2422 20.1798-48.0256 20.386-48.72C20.5171-49.1616 20.8333-49.7608 21.0886-50.0516C21.3439-50.3423 21.8798-50.7062 22.2795-50.8604C22.9705-51.127 24.1957-51.141 47.1116-51.141C66.8287-51.141 71.3231-51.1033 71.8-50.9344C72.1211-50.8209 72.5937-50.5516 72.8501-50.3357C73.1066-50.1199 73.4699-49.6563 73.6575-49.3058C73.9984-48.6686 73.9984-48.6686 73.9984-35.6115C73.9984-34.9022 73.9984-34.2315 73.9978-33.5968L73.9978-33.5968C75.3957-32.7159 76.603-31.5646 77.5494-30.2105C77.5519-31.7152 77.5519-33.4964 77.5519-35.6115C77.5519-47.6573 77.529-48.9082 77.2848-49.7886C77.1383-50.3196 76.8725-51.0394 76.6942-51.3879C76.5166-51.7365 76.0882-52.3287 75.7422-52.7041C75.3833-53.0932 74.707-53.5781 74.1692-53.8315C73.65-54.076 72.8569-54.3531 72.4067-54.447C71.8292-54.5675 64.3838-54.6178 47.1116-54.6178ZM27.3998-45.6554C26.0844-45.6554 25.8788-45.6178 25.6184-45.3301C25.3711-45.0569 25.324-44.7628 25.324-43.492C25.324-42.2213 25.3711-41.9272 25.6184-41.654C25.8803-41.3646 26.0833-41.329 27.4606-41.329C28.6839-41.329 29.0675-41.3825 29.2908-41.5847C29.5313-41.8023 29.5735-42.0886 29.5735-43.5074C29.5735-45.0549 29.5488-45.1917 29.23-45.415C28.9769-45.5923 28.4954-45.6554 27.3998-45.6554ZM35.2966-45.6554C33.9122-45.6554 33.7259-45.6214 33.4425-45.3172C33.1698-45.0245 33.1274-44.7752 33.1274-43.4631C33.1274-42.153 33.1694-41.905 33.4364-41.638C33.7043-41.3701 33.9516-41.329 35.2908-41.329C36.6299-41.329 36.877-41.3701 37.1448-41.638C37.4127-41.9058 37.454-42.1529 37.454-43.492C37.454-44.8313 37.4127-45.0786 37.1448-45.3464C36.8772-45.6141 36.6298-45.6554 35.2966-45.6554ZM43.1601-45.6554C41.8322-45.6554 41.5845-45.6139 41.317-45.3464C41.0474-45.0768 41.008-44.8314 41.008-43.4237C41.008-41.9313 41.0337-41.7918 41.3513-41.5693C41.6044-41.392 42.0815-41.3294 43.1669-41.3312C43.9766-41.3325 44.7156-41.3848 44.8091-41.4472C44.9026-41.5097 45.0593-41.7126 45.157-41.8983C45.2548-42.0839 45.3346-42.822 45.3346-43.5386C45.3346-44.6225 45.2807-44.9096 45.0142-45.2483C44.7066-45.6393 44.6333-45.6554 43.1601-45.6554ZM50.9042-45.6554C49.5713-45.6554 49.3664-45.6183 49.1056-45.3301C48.8583-45.0569 48.8112-44.7628 48.8112-43.492C48.8112-42.2213 48.8583-41.9272 49.1056-41.654C49.3681-41.3638 49.57-41.329 50.9745-41.329C52.379-41.329 52.5809-41.3638 52.8434-41.654C53.0915-41.9282 53.1378-42.2218 53.1378-43.522C53.1378-44.9568 53.1124-45.0853 52.7731-45.36C52.4698-45.6056 52.1549-45.6554 50.9042-45.6554ZM58.7779-45.6554C57.4388-45.6554 57.1915-45.6143 56.9236-45.3464C56.6558-45.0786 56.6147-44.8313 56.6147-43.492C56.6147-42.1529 56.6558-41.9058 56.9236-41.638C57.1915-41.3701 57.4388-41.329 58.7779-41.329C60.1172-41.329 60.3644-41.3701 60.6323-41.638C60.9001-41.9058 60.9412-42.1529 60.9412-43.492C60.9412-44.8313 60.9001-45.0786 60.6323-45.3464C60.3644-45.6143 60.1172-45.6554 58.7779-45.6554ZM66.6473-45.6554C65.3193-45.6554 65.0717-45.6139 64.8042-45.3464C64.5346-45.0768 64.4952-44.8314 64.4952-43.4237C64.4952-41.9313 64.5211-41.7918 64.8387-41.5693C65.0919-41.392 65.569-41.3294 66.6543-41.3312C67.4641-41.3325 68.203-41.3848 68.2966-41.4472C68.3901-41.5097 68.5465-41.7126 68.6442-41.8983C68.7419-42.0839 68.8218-42.822 68.8218-43.5386C68.8218-44.6225 68.7681-44.9096 68.5016-45.2483C68.1941-45.6393 68.1204-45.6554 66.6473-45.6554ZM27.4744-37.7748C26.2545-37.7748 25.8322-37.72 25.6503-37.5381C25.5201-37.4079 25.3682-37.0597 25.3128-36.7644C25.2574-36.4691 25.24-35.7329 25.2741-35.1283C25.327-34.1921 25.3919-33.9841 25.7116-33.7253C26.0397-33.4596 26.2785-33.4279 27.6109-33.4735C28.9051-33.5177 29.1682-33.5708 29.3543-33.8255C29.5088-34.037 29.5735-34.5806 29.5735-35.6677C29.5735-36.8859 29.5196-37.2691 29.3175-37.4923C29.1014-37.7312 28.8161-37.7748 27.4744-37.7748ZM35.3441-37.7748C33.9515-37.7748 33.7056-37.735 33.4364-37.4658C33.1689-37.1983 33.1274-36.9506 33.1274-35.6227C33.1274-34.1495 33.1435-34.0762 33.5345-33.7686C33.8732-33.5021 34.1606-33.4482 35.2445-33.4482C35.961-33.4482 36.6991-33.5283 36.8847-33.6261C37.0704-33.7237 37.2734-33.8802 37.3359-33.9737C37.3983-34.0672 37.4503-34.8335 37.4516-35.6767C37.4535-36.8887 37.4006-37.269 37.1984-37.4923C36.982-37.7314 36.6964-37.7748 35.3441-37.7748ZM43.1448-37.7748C41.8992-37.7748 41.5144-37.7218 41.2905-37.5191C41.0519-37.3032 41.0085-37.0203 41.0104-35.7034C41.0117-34.8455 41.0638-34.0681 41.1263-33.9759C41.1887-33.8837 41.3788-33.7292 41.5488-33.6328C41.7188-33.5364 42.4693-33.4556 43.2168-33.453C44.457-33.4487 44.6093-33.4814 44.9554-33.8274C45.305-34.1772 45.3346-34.3218 45.3346-35.6818C45.3346-36.9508 45.2913-37.2 45.0254-37.4658C44.7569-37.7344 44.5105-37.7748 43.1448-37.7748ZM50.9616-37.7748C49.7418-37.7748 49.3194-37.72 49.1374-37.5381C49.0072-37.4079 48.8554-37.0597 48.8-36.7644C48.7446-36.4691 48.7272-35.7329 48.7613-35.1283C48.8133-34.2076 48.8818-33.982 49.1822-33.7386C49.4691-33.5064 49.7985-33.4482 50.827-33.4482C51.5345-33.4482 52.2849-33.5135 52.4946-33.5932C52.7361-33.685 52.9439-33.9444 53.0617-34.3014C53.1656-34.6163 53.2223-35.364 53.1903-35.9971C53.1482-36.8329 53.0568-37.214 52.8413-37.4522C52.5812-37.7396 52.3753-37.7748 50.9616-37.7748ZM58.8312-37.7748C57.4388-37.7748 57.1928-37.735 56.9236-37.4658C56.6561-37.1983 56.6147-36.9506 56.6147-35.6227C56.6147-34.1495 56.6307-34.0762 57.0217-33.7686C57.3604-33.5021 57.6477-33.4482 58.7317-33.4482C59.4483-33.4482 60.1863-33.5283 60.372-33.6261C60.5576-33.7237 60.7606-33.8802 60.823-33.9737C60.8855-34.0672 60.9375-34.8335 60.9388-35.6767C60.9407-36.8887 60.8877-37.269 60.6856-37.4923C60.4692-37.7314 60.1836-37.7748 58.8312-37.7748ZM66.632-37.7748C65.3863-37.7748 65.0019-37.7218 64.7779-37.5191C64.5393-37.3032 64.4956-37.0203 64.4977-35.7034C64.4979-35.5193 64.5003-35.339 64.5049-35.1682L64.5049-35.1682C65.4484-35.3935 66.4151-35.5074 67.3852-35.5074L67.3852-35.5074C67.8651-35.5074 68.3446-35.4795 68.8213-35.4239C68.8217-35.5047 68.8218-35.5905 68.8218-35.6818C68.8218-36.9508 68.7787-37.2 68.5129-37.4658C68.2443-37.7344 67.9977-37.7748 66.632-37.7748ZM47.0213-30.0487C38.6515-30.0487 34.2409-29.9945 33.9612-29.8882C33.7289-29.7998 33.4486-29.6088 33.3382-29.4634C33.2123-29.2978 33.1354-28.7256 33.1323-27.9314C33.1296-27.2343 33.2086-26.4857 33.3077-26.2681C33.413-26.037 33.6864-25.8145 33.9643-25.7338C34.2263-25.6577 40.0736-25.5894 46.9581-25.5817C50.2451-25.578 53.0681-25.5858 55.2391-25.6031L55.2391-25.6031C55.5622-27.1754 56.1873-28.67 57.0801-30.0039C54.9487-30.0347 51.6565-30.0487 47.0213-30.0487ZM27.8666-30.036C27.5735-30.0433 27.2431-30.0392 26.946-30.0225C26.189-29.9797 25.7858-29.8813 25.5979-29.6936C25.4039-29.4995 25.3133-29.1004 25.2702-28.2477C25.2376-27.5998 25.2897-26.8067 25.386-26.4853C25.5099-26.072 25.6847-25.8556 25.9833-25.7465C26.2156-25.6616 26.8705-25.5865 27.4386-25.5798C28.0068-25.5731 28.666-25.6415 28.9035-25.7318C29.141-25.8222 29.388-25.9786 29.4521-26.0795C29.5163-26.1804 29.5698-26.9708 29.5711-27.8358C29.5729-29.0448 29.5186-29.4633 29.3365-29.6454C29.2063-29.7756 28.8584-29.9274 28.5631-29.9828C28.4155-30.0105 28.1597-30.0289 27.8666-30.036Z"/>
  </g>
  <g id="Regular-S" transform="matrix(1 0 0 1 1404.51 696)">
   <path class="monochrome-0 multicolor-0:tintColor hierarchical-0:tertiary SFSymbolsPreviewWireframe" d="M22.2168 0.390625L68.457 0.390625C76.8066 0.390625 80.9082-3.71094 80.9082-11.9141L80.9082-58.4961C80.9082-66.6992 76.8066-70.8008 68.457-70.8008L22.2168-70.8008C13.916-70.8008 9.76562-66.6992 9.76562-58.4961L9.76562-11.9141C9.76562-3.71094 13.916 0.390625 22.2168 0.390625Z"/>
   <path class="monochrome-1 multicolor-1:white hierarchical-1:primary SFSymbolsPreviewWireframe" d="M64.6905-34.2508C64.2929-34.252 63.7292-34.2216 63.4379-34.1832C63.1466-34.1447 62.6414-34.0523 62.3151-33.9778C61.9888-33.9033 61.4556-33.7493 61.1302-33.6357C60.8049-33.522 60.2381-33.2781 59.8709-33.0936C59.5037-32.9091 59.0163-32.6319 58.7877-32.4775C58.5591-32.3232 58.1739-32.0394 57.9318-31.8469C57.6898-31.6545 57.2175-31.2098 56.8823-30.8586C56.5472-30.5074 56.0879-29.9467 55.8616-29.6128C55.6354-29.2789 55.3413-28.8077 55.208-28.5656C55.0747-28.3236 54.8557-27.8597 54.7214-27.5349C54.5871-27.2102 54.401-26.6619 54.3077-26.3164C54.2145-25.9708 54.0928-25.3913 54.0376-25.0285C53.9824-24.6656 53.9378-23.9648 53.9384-23.4711C53.9391-22.9775 53.9822-22.2994 54.0342-21.9643C54.0862-21.6292 54.1629-21.2025 54.2045-21.0163C54.2461-20.8301 54.3584-20.4341 54.4542-20.1362C54.55-19.8383 54.8219-19.1983 55.0585-18.7142C55.2951-18.2301 55.6942-17.5496 55.9452-17.202C56.1962-16.8543 56.6619-16.3044 56.9804-15.9798C57.2989-15.6551 57.7728-15.2226 58.0335-15.0188C58.2941-14.815 58.7055-14.5223 58.9475-14.3683C59.1896-14.2144 59.601-13.9819 59.8616-13.8516C60.1223-13.7213 60.5183-13.5388 60.7417-13.4463C60.9651-13.3538 61.3611-13.216 61.6218-13.14C61.8825-13.0639 62.3396-12.9516 62.6375-12.8905C62.9354-12.8293 63.4991-12.7559 63.8901-12.7274C64.2811-12.699 64.7534-12.6854 64.9396-12.6971C65.1258-12.7088 65.5031-12.7351 65.7782-12.7555C66.0533-12.776 66.5105-12.8398 66.794-12.8975C67.0774-12.9552 67.5683-13.0799 67.8848-13.1746C68.2014-13.2693 68.8107-13.5124 69.2389-13.7149C69.6672-13.9173 70.2157-14.2101 70.4576-14.3656C70.6997-14.5211 71.1109-14.815 71.3717-15.0188C71.6324-15.2226 72.1064-15.6551 72.4248-15.9798C72.7433-16.3044 73.2091-16.8543 73.4602-17.202C73.7109-17.5496 74.1098-18.2301 74.3466-18.7142C74.5832-19.1983 74.8554-19.8383 74.9512-20.1362C75.0467-20.4341 75.1593-20.8301 75.2007-21.0163C75.2425-21.2025 75.3193-21.6292 75.3713-21.9643C75.4229-22.2994 75.466-22.9775 75.4666-23.4711C75.4672-23.9648 75.4227-24.6656 75.3674-25.0285C75.3123-25.3913 75.1907-25.9708 75.0973-26.3164C75.0041-26.6619 74.8181-27.2102 74.6835-27.5349C74.5492-27.8597 74.3302-28.3236 74.1969-28.5656C74.0638-28.8077 73.7695-29.2789 73.5433-29.6128C73.317-29.9467 72.8576-30.5074 72.5225-30.8586C72.1874-31.2098 71.7153-31.6545 71.4733-31.8469C71.2314-32.0394 70.8496-32.3209 70.6255-32.4723C70.4011-32.6237 69.9136-32.9005 69.542-33.0875C69.1704-33.2744 68.5985-33.5214 68.2708-33.6363C67.9429-33.7513 67.4707-33.8941 67.2212-33.9536C66.9718-34.013 66.4629-34.1036 66.0905-34.1551C65.7181-34.2065 65.0881-34.2497 64.6905-34.2508ZM64.3665-28.3625C64.5651-28.3625 64.6576-28.3212 64.7654-28.1841C64.9043-28.0076 64.9057-27.9579 64.9035-23.4616C64.9018-19.8408 64.8836-18.8939 64.8135-18.8017C64.7651-18.738 64.6506-18.6573 64.5592-18.6225C64.4458-18.5794 64.3096-18.588 64.1308-18.6495C63.9844-18.6998 63.6863-18.9165 63.4561-19.1402C63.2292-19.3605 62.6347-19.9261 62.1349-20.397C61.226-21.2532 61.2261-21.2533 60.3407-21.2549C59.8538-21.2559 59.3182-21.2882 59.1506-21.3267C58.9831-21.3652 58.7619-21.477 58.6593-21.5751C58.5567-21.6732 58.4425-21.8617 58.4057-21.9942C58.3689-22.1267 58.3387-22.8152 58.3385-23.5241C58.3381-24.7281 58.3481-24.8327 58.4904-25.1102C58.5851-25.2948 58.7321-25.4539 58.8787-25.5307C59.0773-25.6346 59.2795-25.6543 60.1571-25.6543C61.1996-25.6543 61.1997-25.6542 62.0384-26.4497C62.4997-26.8873 63.154-27.4967 63.4925-27.8039C64.0375-28.2985 64.1376-28.3625 64.3665-28.3625ZM69.1588-27.4822C69.2302-27.4822 69.3622-27.4243 69.4523-27.3533C69.5425-27.2824 69.7732-26.9241 69.9651-26.557C70.1828-26.1411 70.3806-25.6345 70.4904-25.2132C70.5962-24.8042 70.6808-24.2562 70.7036-23.8262C70.7296-23.3448 70.7081-22.8949 70.637-22.4328C70.5792-22.0574 70.4396-21.4955 70.3256-21.184C70.2119-20.8726 69.9967-20.4118 69.847-20.1599C69.6974-19.908 69.5077-19.655 69.4257-19.5975C69.3436-19.5401 69.2264-19.4929 69.1652-19.4929C69.1042-19.4929 68.9738-19.5561 68.8756-19.6333C68.762-19.7227 68.6975-19.8393 68.6976-19.9548C68.698-20.0545 68.7605-20.2276 68.8368-20.3393C68.913-20.451 69.0663-20.7197 69.1779-20.9363C69.2895-21.153 69.4396-21.5186 69.5113-21.7488C69.5829-21.9789 69.6767-22.4589 69.72-22.8152C69.7795-23.3066 69.7796-23.6238 69.72-24.1291C69.6767-24.4955 69.5645-25.0267 69.4707-25.3095C69.3767-25.5922 69.1773-26.0367 69.0276-26.2973C68.8778-26.558 68.7389-26.8531 68.7188-26.9531C68.6915-27.0888 68.7263-27.1787 68.8559-27.3085C68.9516-27.4041 69.0877-27.4822 69.1588-27.4822ZM67.1723-25.9928C67.2563-25.9928 67.3997-25.9339 67.4911-25.8619C67.5825-25.79 67.7568-25.5155 67.8783-25.2519C67.9998-24.9884 68.144-24.5218 68.1989-24.215C68.2653-23.844 68.2838-23.4867 68.2542-23.1492C68.2295-22.8699 68.1354-22.4062 68.0449-22.1189C67.9544-21.8316 67.781-21.4661 67.6596-21.3066C67.4821-21.0733 67.3912-21.0122 67.1956-20.9957C66.9987-20.979 66.925-21.01 66.8091-21.1573C66.7304-21.2574 66.666-21.3767 66.666-21.4223C66.666-21.4678 66.7552-21.6723 66.8642-21.8764C66.9731-22.0807 67.114-22.4258 67.1773-22.6433C67.2635-22.94 67.2845-23.2022 67.2609-23.6933C67.2326-24.2809 67.2031-24.4011 66.973-24.8666C66.8321-25.1518 66.7167-25.4665 66.7167-25.5662C66.7167-25.6722 66.7797-25.7984 66.8682-25.8701C66.9515-25.9375 67.0883-25.9928 67.1723-25.9928Z"/>
   <path class="monochrome-2 multicolor-2:white hierarchical-2:primary SFSymbolsPreviewWireframe" d="M45.902-52.7461C29.8707-52.7461 22.8967-52.6991 22.3603-52.5876C21.9412-52.5005 21.194-52.2326 20.6998-51.9925C20.2055-51.7525 19.5531-51.2874 19.2502-50.9587C18.9472-50.63 18.5338-50.0078 18.3316-49.5762C18.1294-49.1445 17.892-48.4482 17.8038-48.0291C17.6932-47.5032 17.6435-43.4822 17.6435-35.0574C17.6435-26.6992 17.6936-22.6073 17.8024-22.0857C17.8899-21.6665 18.1475-20.9285 18.3751-20.4454C18.6171-19.9319 19.0631-19.3145 19.4492-18.9586C19.8124-18.6238 20.4121-18.2146 20.7819-18.0492C21.1518-17.8839 21.778-17.6688 22.1735-17.571C22.7281-17.4341 28.1394-17.3911 45.8301-17.3834C49.3654-17.3818 52.3737-17.3814 54.9349-17.3829L54.9349-17.3829C54.3247-18.377 53.8687-19.4579 53.5825-20.5888C51.4192-20.5858 48.9463-20.5832 46.1178-20.5802C33.7394-20.5667 23.4459-20.6063 23.2436-20.6683C23.0412-20.7301 22.7178-20.8623 22.5247-20.9619C22.3316-21.0616 21.9957-21.3088 21.7784-21.5115C21.5611-21.7141 21.2537-22.2265 21.0953-22.6499C20.8159-23.3966 20.8073-23.7662 20.8073-34.9648C20.8073-44.9511 20.8372-46.6109 21.0292-47.2572C21.1512-47.6681 21.4455-48.2258 21.6831-48.4964C21.9207-48.7669 22.4194-49.1057 22.7914-49.2492C23.4345-49.4973 24.5748-49.5103 45.902-49.5103C64.2523-49.5103 68.435-49.4752 68.879-49.318C69.1777-49.2124 69.6176-48.9617 69.8563-48.7608C70.095-48.5599 70.4332-48.1286 70.6077-47.8024C70.925-47.2093 70.925-47.2092 70.925-35.0573C70.925-34.3973 70.925-33.773 70.9243-33.1823L70.9243-33.1823C72.2252-32.3625 73.3488-31.291 74.2299-30.0308C74.2319-31.4311 74.2323-33.0889 74.2323-35.0573C74.2323-46.2681 74.2104-47.4323 73.9837-48.2516C73.8469-48.7458 73.5999-49.4158 73.4342-49.7401C73.2687-50.0645 72.8697-50.6156 72.5479-50.9651C72.2141-51.3272 71.5843-51.7785 71.0841-52.0143C70.6007-52.2419 69.8628-52.4997 69.4437-52.5872C68.906-52.6993 61.9769-52.7461 45.902-52.7461ZM27.5567-44.405C26.3325-44.405 26.1412-44.37 25.8988-44.1022C25.6687-43.8479 25.6249-43.5743 25.6249-42.3916C25.6249-41.2089 25.6687-40.9353 25.8988-40.681C26.1426-40.4116 26.3316-40.3785 27.6133-40.3785C28.7518-40.3785 29.1088-40.4283 29.3167-40.6164C29.5405-40.819 29.5798-41.0855 29.5798-42.4059C29.5798-43.8461 29.5568-43.9734 29.2601-44.1812C29.0246-44.3462 28.5764-44.405 27.5567-44.405ZM34.9061-44.405C33.6177-44.405 33.4443-44.3733 33.1805-44.0902C32.9268-43.8178 32.8873-43.5858 32.8873-42.3646C32.8873-41.1454 32.9264-40.9146 33.1749-40.6661C33.4242-40.4168 33.6544-40.3785 34.9007-40.3785C36.147-40.3785 36.377-40.4168 36.6262-40.6661C36.8755-40.9153 36.914-41.1453 36.914-42.3916C36.914-43.638 36.8755-43.8681 36.6262-44.1174C36.3771-44.3665 36.1469-44.405 34.9061-44.405ZM42.2245-44.405C40.9886-44.405 40.7581-44.3664 40.5091-44.1174C40.2582-43.8665 40.2216-43.6381 40.2216-42.328C40.2216-40.939 40.2455-40.8092 40.5411-40.6022C40.7767-40.4371 41.2207-40.3789 42.2308-40.3805C42.9844-40.3817 43.6722-40.4304 43.7592-40.4885C43.8462-40.5466 43.992-40.7355 44.083-40.9083C44.1739-41.0811 44.2483-41.768 44.2483-42.4348C44.2483-43.4437 44.1981-43.7109 43.9501-44.0261C43.6638-44.39 43.5955-44.405 42.2245-44.405ZM49.4317-44.405C48.1912-44.405 48.0006-44.3705 47.7578-44.1022C47.5277-43.8479 47.4838-43.5743 47.4838-42.3916C47.4838-41.2089 47.5277-40.9353 47.7578-40.681C48.0022-40.411 48.19-40.3785 49.4972-40.3785C50.8043-40.3785 50.9922-40.411 51.2365-40.681C51.4674-40.9361 51.5105-41.2094 51.5105-42.4195C51.5105-43.7548 51.4869-43.8744 51.1711-44.1301C50.8888-44.3587 50.5958-44.405 49.4317-44.405ZM56.7596-44.405C55.5133-44.405 55.2831-44.3667 55.0339-44.1174C54.7846-43.8681 54.7463-43.638 54.7463-42.3916C54.7463-41.1453 54.7846-40.9153 55.0339-40.6661C55.2831-40.4168 55.5133-40.3785 56.7596-40.3785C58.006-40.3785 58.2362-40.4168 58.4854-40.6661C58.7347-40.9153 58.773-41.1453 58.773-42.3916C58.773-43.638 58.7347-43.8681 58.4854-44.1174C58.2362-44.3667 58.006-44.405 56.7596-44.405ZM64.0835-44.405C62.8475-44.405 62.6171-44.3664 62.3681-44.1174C62.1172-43.8665 62.0805-43.6381 62.0805-42.328C62.0805-40.939 62.1047-40.8092 62.4003-40.6022C62.6359-40.4371 63.0799-40.3789 64.09-40.3805C64.8436-40.3817 65.5314-40.4304 65.6184-40.4885C65.7054-40.5466 65.851-40.7355 65.9419-40.9083C66.0329-41.0811 66.1072-41.768 66.1072-42.4348C66.1072-43.4437 66.0573-43.7109 65.8092-44.0261C65.523-44.39 65.4545-44.405 64.0835-44.405ZM27.6262-37.0707C26.4909-37.0707 26.0978-37.0197 25.9285-36.8504C25.8073-36.7292 25.666-36.4051 25.6144-36.1304C25.5629-35.8556 25.5467-35.1704 25.5784-34.6077C25.6277-33.7364 25.6881-33.5428 25.9856-33.3019C26.2909-33.0547 26.5131-33.0252 27.7532-33.0676C28.9577-33.1087 29.2026-33.1582 29.3757-33.3952C29.5195-33.592 29.5798-34.0979 29.5798-35.1097C29.5798-36.2434 29.5296-36.6001 29.3415-36.8078C29.1404-37.0301 28.8749-37.0707 27.6262-37.0707ZM34.9503-37.0707C33.6543-37.0707 33.4254-37.0337 33.1749-36.7832C32.9259-36.5341 32.8873-36.3037 32.8873-35.0678C32.8873-33.6967 32.9022-33.6285 33.2661-33.3422C33.5814-33.0942 33.8488-33.044 34.8577-33.044C35.5245-33.044 36.2114-33.1186 36.3842-33.2095C36.557-33.3005 36.7459-33.446 36.804-33.5331C36.8621-33.6201 36.9105-34.3333 36.9118-35.118C36.9135-36.2461 36.8642-36.5999 36.6761-36.8078C36.4747-37.0303 36.2089-37.0707 34.9503-37.0707ZM42.2102-37.0707C41.051-37.0707 40.6929-37.0214 40.4845-36.8327C40.2624-36.6318 40.222-36.3685 40.2238-35.1429C40.225-34.3444 40.2735-33.621 40.3316-33.5351C40.3897-33.4493 40.5667-33.3056 40.7249-33.2159C40.8831-33.1261 41.5816-33.051 42.2773-33.0485C43.4315-33.0445 43.5732-33.0749 43.8953-33.397C44.2207-33.7225 44.2483-33.8571 44.2483-35.1228C44.2483-36.3038 44.2079-36.5357 43.9605-36.7832C43.7106-37.0331 43.4812-37.0707 42.2102-37.0707ZM49.4852-37.0707C48.3499-37.0707 47.9568-37.0197 47.7875-36.8504C47.6663-36.7292 47.525-36.4051 47.4734-36.1304C47.4219-35.8556 47.4056-35.1704 47.4374-34.6077C47.4858-33.7507 47.5495-33.5408 47.8291-33.3144C48.0961-33.0982 48.4027-33.044 49.3599-33.044C50.0183-33.044 50.7167-33.1048 50.9118-33.179C51.1367-33.2645 51.33-33.5059 51.4397-33.8381C51.5363-34.1311 51.5892-34.8271 51.5594-35.4163C51.5201-36.1941 51.4351-36.5488 51.2345-36.7705C50.9924-37.0379 50.8008-37.0707 49.4852-37.0707ZM56.8092-37.0707C55.5133-37.0707 55.2844-37.0337 55.0339-36.7832C54.7849-36.5341 54.7463-36.3037 54.7463-35.0678C54.7463-33.6967 54.7612-33.6285 55.1251-33.3422C55.4404-33.0942 55.7078-33.044 56.7166-33.044C57.3835-33.044 58.0704-33.1186 58.2431-33.2095C58.4159-33.3005 58.6048-33.446 58.6629-33.5331C58.721-33.6201 58.7695-34.3333 58.7707-35.118C58.7725-36.2461 58.7232-36.5999 58.535-36.8078C58.3337-37.0303 58.0678-37.0707 56.8092-37.0707ZM64.0692-37.0707C62.9099-37.0707 62.5521-37.0214 62.3437-36.8327C62.1216-36.6318 62.081-36.3685 62.0828-35.1429C62.083-34.9716 62.0853-34.8037 62.0896-34.6448L62.0896-34.6448C62.9677-34.8545 63.8674-34.9605 64.7702-34.9605L64.7702-34.9605C65.2169-34.9605 65.6631-34.9345 66.1068-34.8828C66.1071-34.958 66.1073-35.0378 66.1073-35.1228C66.1073-36.3038 66.0671-36.5357 65.8197-36.7832C65.5698-37.0331 65.3402-37.0707 64.0692-37.0707ZM45.818-29.8802C38.0284-29.8802 33.9236-29.8298 33.6633-29.7308C33.4471-29.6486 33.1862-29.4708 33.0834-29.3355C32.9663-29.1813 32.8947-28.6488 32.8918-27.9097C32.8894-27.2609 32.9628-26.5643 33.0551-26.3616C33.1531-26.1467 33.4075-25.9395 33.6662-25.8644C33.91-25.7936 39.3519-25.73 45.7592-25.7229C48.8183-25.7195 51.4456-25.7267 53.4661-25.7428L53.4661-25.7428C53.7668-27.2061 54.3486-28.5971 55.1794-29.8386C53.1959-29.8672 50.1318-29.8802 45.818-29.8802ZM27.9912-29.8684C27.7184-29.8751 27.4109-29.8714 27.1344-29.8558C26.4299-29.816 26.0546-29.7245 25.8798-29.5497C25.6992-29.3691 25.6149-28.9976 25.5748-28.2041C25.5444-27.6011 25.593-26.863 25.6826-26.5638C25.7978-26.1792 25.9605-25.9778 26.2385-25.8762C26.4546-25.7972 27.0642-25.7273 27.5929-25.7211C28.1217-25.7148 28.7352-25.7785 28.9562-25.8626C29.1773-25.9467 29.4071-26.0922 29.4668-26.1862C29.5265-26.2801 29.5763-27.0156 29.5775-27.8207C29.5792-28.9459 29.5286-29.3354 29.3592-29.5048C29.2381-29.626 28.9142-29.7673 28.6394-29.8189C28.502-29.8446 28.264-29.8618 27.9912-29.8684Z"/>
  </g>
  <g id="Ultralight-S" transform="matrix(1 0 0 1 516.35 696)">
   <path class="monochrome-0 multicolor-0:tintColor hierarchical-0:tertiary SFSymbolsPreviewWireframe" d="M19.7647-1.65282L66.9585-1.65282C73.4917-1.65282 76.9576-5.20946 76.9576-11.6416L76.9576-58.8594C76.9576-65.2915 73.4917-68.8482 66.9585-68.8482L19.7647-68.8482C13.2349-68.8482 9.76562-65.3823 9.76562-58.8594L9.76562-11.6416C9.76562-5.11864 13.2349-1.65282 19.7647-1.65282Z"/>
   <path class="monochrome-1 multicolor-1:white hierarchical-1:primary SFSymbolsPreviewWireframe" d="M60.0735-34.2202C59.7136-34.2213 59.2035-34.1938 58.9399-34.159C58.6762-34.1242 58.219-34.0405 57.9236-33.9731C57.6283-33.9057 57.1458-33.7663 56.8513-33.6635C56.5568-33.5606 56.0439-33.3398 55.7115-33.1728C55.3792-33.0059 54.9381-32.755 54.7312-32.6153C54.5243-32.4756 54.1756-32.2187 53.9566-32.0446C53.7375-31.8704 53.3101-31.468 53.0068-31.1501C52.7034-30.8322 52.2877-30.3248 52.083-30.0226C51.8782-29.7204 51.612-29.2939 51.4913-29.0748C51.3707-28.8557 51.1725-28.436 51.051-28.142C50.9294-27.8481 50.761-27.3518 50.6766-27.0391C50.5922-26.7264 50.4821-26.2019 50.4321-25.8735C50.3821-25.5451 50.3417-24.9109 50.3423-24.4641C50.3429-24.0173 50.382-23.4036 50.429-23.1003C50.4761-22.797 50.5455-22.4108 50.5831-22.2423C50.6208-22.0738 50.7225-21.7154 50.8092-21.4458C50.8958-21.1761 51.1419-20.597 51.3561-20.1588C51.5703-19.7207 51.9314-19.1048 52.1586-18.7902C52.3857-18.4756 52.8072-17.9778 53.0955-17.684C53.3837-17.3902 53.8126-16.9988 54.0486-16.8143C54.2845-16.6298 54.6568-16.3649 54.8758-16.2256C55.0949-16.0862 55.4672-15.8759 55.7031-15.7579C55.939-15.64 56.2974-15.4749 56.4997-15.3911C56.7019-15.3074 57.0603-15.1827 57.2962-15.1139C57.5321-15.045 57.9458-14.9434 58.2154-14.888C58.4851-14.8327 58.9952-14.7663 59.3491-14.7405C59.703-14.7147 60.1304-14.7024 60.2989-14.713C60.4674-14.7236 60.8089-14.7474 61.0579-14.7659C61.3069-14.7844 61.7207-14.8422 61.9772-14.8944C62.2338-14.9466 62.6781-15.0595 62.9645-15.1452C63.251-15.2309 63.8024-15.451 64.19-15.6342C64.5775-15.8174 65.074-16.0824 65.293-16.2231C65.5121-16.3638 65.8844-16.6298 66.1203-16.8143C66.3563-16.9988 66.785-17.3902 67.0733-17.684C67.3616-17.9778 67.7832-18.4756 68.0104-18.7902C68.2375-19.1048 68.5985-19.7207 68.8127-20.1588C69.0268-20.597 69.2731-21.1761 69.3598-21.4458C69.4464-21.7154 69.5482-22.0738 69.5858-22.2423C69.6235-22.4108 69.6929-22.797 69.74-23.1003C69.7869-23.4036 69.8257-24.0173 69.8263-24.4641C69.827-24.9109 69.7866-25.5451 69.7366-25.8735C69.6867-26.2019 69.5767-26.7264 69.4923-27.0391C69.4079-27.3518 69.2394-27.8481 69.1178-28.142C68.9961-28.436 68.7979-28.8557 68.6773-29.0748C68.5567-29.2939 68.2904-29.7204 68.0858-30.0226C67.8809-30.3248 67.4652-30.8322 67.1619-31.1501C66.8587-31.468 66.4313-31.8704 66.2122-32.0446C65.9932-32.2187 65.6478-32.4735 65.445-32.6106C65.2419-32.7476 64.8007-32.9981 64.4644-33.1674C64.1281-33.3365 63.6104-33.56 63.3137-33.6641C63.0171-33.7681 62.5897-33.8973 62.3639-33.9512C62.1382-34.005 61.6775-34.087 61.3405-34.1336C61.0035-34.1801 60.4334-34.2192 60.0735-34.2202ZM59.7803-28.891C59.96-28.891 60.0438-28.8536 60.1413-28.7295C60.267-28.5698 60.2683-28.5248 60.2663-24.4555C60.2648-21.1785 60.2482-20.3215 60.1848-20.2379C60.1409-20.1803 60.0374-20.1073 59.9546-20.0758C59.852-20.0368 59.7288-20.0446 59.5669-20.1002C59.4344-20.1458 59.1646-20.3419 58.9563-20.5443C58.751-20.7438 58.2129-21.2556 57.7606-21.6818C56.938-22.4568 56.938-22.4568 56.1367-22.4583C55.696-22.4591 55.2113-22.4884 55.0597-22.5233C54.908-22.5581 54.7079-22.6592 54.615-22.748C54.5221-22.8368 54.4188-23.0075 54.3855-23.1274C54.3522-23.2473 54.3248-23.8704 54.3246-24.512C54.3243-25.6017 54.3333-25.6964 54.4621-25.9475C54.5478-26.1146 54.6809-26.2586 54.8135-26.328C54.9933-26.4222 55.1762-26.4399 55.9705-26.4399C56.9141-26.4399 56.9141-26.4398 57.6732-27.1598C58.0907-27.5558 58.6829-28.1074 58.9892-28.3855C59.4825-28.8331 59.5731-28.891 59.7803-28.891ZM64.1177-28.0943C64.182-28.0943 64.3016-28.0419 64.3832-27.9777C64.4648-27.9135 64.6736-27.5892 64.8474-27.257C65.0442-26.8806 65.2233-26.422 65.3225-26.0407C65.4186-25.6705 65.495-25.1746 65.5157-24.7854C65.5391-24.3497 65.5196-23.9425 65.4553-23.5243C65.4032-23.1846 65.2766-22.676 65.1736-22.3942C65.0707-22.1123 64.8758-21.6952 64.7404-21.4673C64.605-21.2393 64.4333-21.0103 64.3591-20.9582C64.2848-20.9062 64.1787-20.8636 64.1234-20.8636C64.068-20.8636 63.9501-20.9208 63.8613-20.9906C63.7584-21.0716 63.7-21.1771 63.7002-21.2816C63.7004-21.3718 63.7571-21.5285 63.826-21.6296C63.895-21.7307 64.0338-21.9738 64.1349-22.17C64.2358-22.3661 64.3717-22.6969 64.4365-22.9052C64.5013-23.1135 64.5864-23.548 64.6254-23.8704C64.6794-24.3151 64.6794-24.6022 64.6254-25.0596C64.5863-25.3912 64.4848-25.8719 64.3998-26.1279C64.3148-26.3837 64.1344-26.786 63.9988-27.0219C63.8632-27.2578 63.7375-27.5249 63.7193-27.6154C63.6946-27.7382 63.726-27.8196 63.8434-27.9371C63.9299-28.0236 64.0532-28.0943 64.1177-28.0943ZM62.3196-26.7463C62.3957-26.7463 62.5254-26.6929 62.6082-26.6278C62.6909-26.5628 62.8487-26.3143 62.9586-26.0758C63.0686-25.8372 63.199-25.415 63.2488-25.1373C63.3089-24.8016 63.3257-24.4782 63.2988-24.1727C63.2765-23.9199 63.1913-23.5003 63.1094-23.2403C63.0275-22.9803 62.8705-22.6494 62.7607-22.505C62.6001-22.2939 62.5178-22.2386 62.3408-22.2237C62.1625-22.2086 62.0959-22.2366 61.991-22.37C61.9197-22.4606 61.8614-22.5685 61.8614-22.6097C61.8614-22.651 61.9421-22.836 62.0408-23.0208C62.1394-23.2056 62.2669-23.518 62.3242-23.7149C62.4022-23.9834 62.4212-24.2207 62.3998-24.6651C62.3741-25.1969 62.3475-25.3057 62.1393-25.727C62.0118-25.9851 61.9073-26.27 61.9073-26.3602C61.9073-26.4561 61.9643-26.5704 62.0444-26.6353C62.1198-26.6962 62.2437-26.7463 62.3196-26.7463Z"/>
   <path class="monochrome-2 multicolor-2:white hierarchical-2:primary SFSymbolsPreviewWireframe" d="M43.069-50.9593C28.5599-50.9593 22.248-50.9168 21.7626-50.8159C21.3833-50.737 20.707-50.4946 20.2597-50.2774C19.8124-50.0601 19.222-49.6391 18.9478-49.3417C18.6736-49.0442 18.2994-48.4811 18.1164-48.0904C17.9335-47.6997 17.7186-47.0695 17.6387-46.6902C17.5386-46.2143 17.4937-42.5751 17.4937-34.9502C17.4937-27.3856 17.5391-23.6823 17.6375-23.2101C17.7166-22.8308 17.9498-22.1629 18.1558-21.7257C18.3748-21.2609 18.7784-20.7021 19.1279-20.38C19.4566-20.077 19.9994-19.7066 20.3341-19.557C20.6688-19.4074 21.2356-19.2126 21.5936-19.1242C22.0955-19.0002 26.993-18.9614 43.0039-18.9543C46.2035-18.9529 48.9262-18.9526 51.2442-18.9539L51.2442-18.9539C50.6919-19.8536 50.2792-20.8319 50.0202-21.8554C48.0623-21.8527 45.8242-21.8504 43.2643-21.8476C32.0613-21.8354 22.7452-21.8713 22.562-21.9273C22.3789-21.9834 22.0862-22.1029 21.9114-22.1931C21.7366-22.2833 21.4326-22.507 21.236-22.6905C21.0393-22.8739 20.7611-23.3376 20.6177-23.7208C20.3649-24.3966 20.3571-24.7311 20.3571-34.8663C20.3571-43.9045 20.3842-45.4067 20.5579-45.9916C20.6683-46.3635 20.9347-46.8682 21.1497-47.1131C21.3647-47.358 21.8161-47.6646 22.1528-47.7945C22.7348-48.019 23.7668-48.0308 43.069-48.0308C59.6769-48.0308 63.4625-47.999 63.8643-47.8568C64.1346-47.7612 64.5328-47.5343 64.7488-47.3525C64.9649-47.1706 65.2709-46.7803 65.4288-46.485C65.7159-45.9482 65.7159-45.9482 65.7159-34.9502C65.7159-34.3528 65.7158-33.7878 65.7156-33.2532L65.7156-33.2532C66.8927-32.5112 67.9097-31.5414 68.7069-30.4009C68.7089-31.6682 68.7094-33.1686 68.7094-34.9502C68.7094-45.0964 68.6895-46.1501 68.4843-46.8916C68.3605-47.3389 68.1368-47.9452 67.987-48.2387C67.8372-48.5323 67.4762-49.0311 67.1848-49.3474C66.8827-49.6751 66.3128-50.0836 65.8599-50.297C65.4227-50.503 64.7548-50.7364 64.3754-50.8155C63.8887-50.917 57.6176-50.9593 43.069-50.9593ZM26.4656-43.4102C25.3576-43.4102 25.1845-43.3786 24.9652-43.1362C24.7569-42.906 24.7172-42.6584 24.7172-41.588C24.7172-40.5176 24.7569-40.27 24.9652-40.0398C25.1858-39.796 25.3568-39.7661 26.5168-39.7661C27.5472-39.7661 27.8703-39.8111 28.0584-39.9814C28.261-40.1647 28.2966-40.4059 28.2966-41.6009C28.2966-42.9044 28.2758-43.0197 28.0072-43.2077C27.7941-43.357 27.3885-43.4102 26.4656-43.4102ZM33.1172-43.4102C31.9511-43.4102 31.7941-43.3816 31.5554-43.1254C31.3258-42.8788 31.2901-42.6689 31.2901-41.5636C31.2901-40.4602 31.3254-40.2512 31.5503-40.0263C31.7759-39.8007 31.9843-39.7661 33.1123-39.7661C34.2402-39.7661 34.4484-39.8007 34.674-40.0263C34.8995-40.2519 34.9344-40.46 34.9344-41.588C34.9344-42.716 34.8995-42.9243 34.674-43.1499C34.4485-43.3754 34.2401-43.4102 33.1172-43.4102ZM39.7407-43.4102C38.6221-43.4102 38.4135-43.3753 38.1882-43.1499C37.9611-42.9229 37.928-42.7161 37.928-41.5304C37.928-40.2734 37.9495-40.1559 38.2171-39.9685C38.4304-39.8191 38.8322-39.7664 39.7464-39.7679C40.4284-39.769 41.0509-39.813 41.1296-39.8656C41.2084-39.9182 41.3404-40.0892 41.4227-40.2456C41.505-40.4019 41.5723-41.0236 41.5723-41.6271C41.5723-42.5402 41.5268-42.782 41.3024-43.0674C41.0433-43.3967 40.9815-43.4102 39.7407-43.4102ZM46.2636-43.4102C45.1408-43.4102 44.9683-43.379 44.7486-43.1362C44.5403-42.906 44.5006-42.6584 44.5006-41.588C44.5006-40.5176 44.5403-40.27 44.7486-40.0398C44.9698-39.7954 45.1398-39.7661 46.3228-39.7661C47.5058-39.7661 47.6758-39.7954 47.897-40.0398C48.106-40.2707 48.145-40.5181 48.145-41.6132C48.145-42.8218 48.1236-42.93 47.8378-43.1614C47.5823-43.3683 47.3171-43.4102 46.2636-43.4102ZM52.8957-43.4102C51.7677-43.4102 51.5594-43.3755 51.3338-43.1499C51.1082-42.9243 51.0735-42.716 51.0735-41.588C51.0735-40.46 51.1082-40.2519 51.3338-40.0263C51.5594-39.8007 51.7677-39.7661 52.8957-39.7661C54.0237-39.7661 54.232-39.8007 54.4576-40.0263C54.6832-40.2519 54.7179-40.46 54.7179-41.588C54.7179-42.716 54.6832-42.9243 54.4576-43.1499C54.232-43.3755 54.0237-43.4102 52.8957-43.4102ZM59.5241-43.4102C58.4055-43.4102 58.197-43.3753 57.9716-43.1499C57.7445-42.9229 57.7113-42.7161 57.7113-41.5304C57.7113-40.2734 57.7332-40.1559 58.0007-39.9685C58.214-39.8191 58.6158-39.7664 59.53-39.7679C60.2121-39.769 60.8345-39.813 60.9133-39.8656C60.992-39.9182 61.1238-40.0892 61.2061-40.2456C61.2884-40.4019 61.3557-41.0236 61.3557-41.6271C61.3557-42.5402 61.3105-42.782 61.086-43.0674C60.827-43.3967 60.765-43.4102 59.5241-43.4102ZM26.5285-36.7723C25.501-36.7723 25.1452-36.7262 24.992-36.5729C24.8823-36.4633 24.7544-36.17 24.7078-35.9213C24.6611-35.6726 24.6464-35.0524 24.6752-34.5432C24.7198-33.7546 24.7744-33.5794 25.0436-33.3614C25.32-33.1376 25.5211-33.111 26.6435-33.1493C27.7336-33.1865 27.9552-33.2313 28.1119-33.4458C28.242-33.6239 28.2966-34.0818 28.2966-34.9975C28.2966-36.0236 28.2511-36.3464 28.081-36.5344C27.899-36.7356 27.6586-36.7723 26.5285-36.7723ZM33.1571-36.7723C31.9842-36.7723 31.7771-36.7388 31.5503-36.5121C31.325-36.2867 31.2901-36.0781 31.2901-34.9596C31.2901-33.7187 31.3036-33.6569 31.6329-33.3979C31.9183-33.1734 32.1603-33.128 33.0733-33.128C33.6768-33.128 34.2986-33.1955 34.4549-33.2778C34.6113-33.3601 34.7822-33.4918 34.8348-33.5706C34.8874-33.6494 34.9313-34.2949 34.9324-35.0051C34.934-36.026 34.8893-36.3463 34.7191-36.5344C34.5368-36.7358 34.2962-36.7723 33.1571-36.7723ZM39.7278-36.7723C38.6786-36.7723 38.3545-36.7277 38.1658-36.557C37.9649-36.3751 37.9283-36.1368 37.93-35.0276C37.9311-34.305 37.9749-33.6502 38.0275-33.5725C38.0801-33.4948 38.2403-33.3647 38.3835-33.2835C38.5267-33.2023 39.1588-33.1342 39.7884-33.1321C40.8331-33.1285 40.9613-33.1559 41.2528-33.4475C41.5474-33.742 41.5723-33.8638 41.5723-35.0094C41.5723-36.0782 41.5358-36.2881 41.3118-36.5121C41.0856-36.7383 40.878-36.7723 39.7278-36.7723ZM46.3119-36.7723C45.2844-36.7723 44.9287-36.7262 44.7754-36.5729C44.6657-36.4633 44.5378-36.17 44.4912-35.9213C44.4445-35.6726 44.4298-35.0524 44.4586-34.5432C44.5024-33.7676 44.56-33.5776 44.8131-33.3727C45.0547-33.177 45.3322-33.128 46.1986-33.128C46.7945-33.128 47.4265-33.183 47.6032-33.2501C47.8066-33.3275 47.9816-33.546 48.0808-33.8466C48.1684-34.1119 48.2161-34.7417 48.1892-35.275C48.1536-35.9789 48.0767-36.3 47.8951-36.5006C47.6761-36.7426 47.5027-36.7723 46.3119-36.7723ZM52.9405-36.7723C51.7677-36.7723 51.5605-36.7388 51.3338-36.5121C51.1084-36.2867 51.0735-36.0781 51.0735-34.9596C51.0735-33.7187 51.087-33.6569 51.4164-33.3979C51.7017-33.1734 51.9437-33.128 52.8567-33.128C53.4603-33.128 54.082-33.1955 54.2383-33.2778C54.3947-33.3601 54.5657-33.4918 54.6183-33.5706C54.6708-33.6494 54.7147-34.2949 54.7158-35.0051C54.7174-36.026 54.6728-36.3463 54.5025-36.5344C54.3202-36.7358 54.0797-36.7723 52.9405-36.7723ZM59.5112-36.7723C58.462-36.7723 58.1381-36.7277 57.9495-36.557C57.7485-36.3751 57.7117-36.1368 57.7134-35.0276C57.7136-34.8725 57.7157-34.7206 57.7196-34.5768L57.7196-34.5768C58.5143-34.7666 59.3286-34.8625 60.1456-34.8625L60.1456-34.8625C60.5499-34.8625 60.9538-34.839 61.3553-34.7922C61.3556-34.8602 61.3557-34.9325 61.3557-35.0094C61.3557-36.0782 61.3194-36.2881 61.0955-36.5121C60.8693-36.7383 60.6615-36.7723 59.5112-36.7723ZM42.993-30.2646C35.943-30.2646 32.228-30.2189 31.9924-30.1293C31.7967-30.055 31.5606-29.894 31.4675-29.7716C31.3616-29.6321 31.2968-29.1501 31.2942-28.4812C31.2919-27.894 31.3584-27.2635 31.4419-27.0801C31.5306-26.8855 31.7609-26.6981 31.995-26.6301C32.2157-26.566 37.1409-26.5085 42.9397-26.502C45.7084-26.4989 48.0862-26.5054 49.9149-26.5201L49.9149-26.5201C50.187-27.8444 50.7136-29.1033 51.4655-30.2269C49.6703-30.2528 46.8972-30.2646 42.993-30.2646ZM26.8589-30.2539C26.612-30.26 26.3336-30.2566 26.0834-30.2425C25.4458-30.2064 25.1062-30.1237 24.9479-29.9654C24.7845-29.802 24.7082-29.4658 24.6719-28.7476C24.6444-28.2019 24.6883-27.5339 24.7695-27.2631C24.8737-26.915 25.021-26.7327 25.2726-26.6407C25.4682-26.5693 26.0198-26.506 26.4984-26.5004C26.9769-26.4947 27.5322-26.5524 27.7322-26.6285C27.9323-26.7045 28.1403-26.8363 28.1943-26.9213C28.2484-27.0063 28.2934-27.672 28.2945-28.4007C28.2961-29.419 28.2503-29.7716 28.097-29.9249C27.9873-30.0345 27.6942-30.1624 27.4455-30.2091C27.3212-30.2324 27.1057-30.2479 26.8589-30.2539Z"/>
  </g>
 </g>
</svg>
