<?xml version="1.0" encoding="UTF-8" standalone="no"?>
<!--Generator: Apple Native CoreSVG 341-->

<svg
   version="1.1"
   viewBox="0 0 77.5927 51.6495"
   id="svg2"
   sodipodi:docname="MacOSTypingSoundsIcon.svg"
   inkscape:version="1.4.3 (0d15f75, 2025-12-25)"
   xmlns:inkscape="http://www.inkscape.org/namespaces/inkscape"
   xmlns:sodipodi="http://sodipodi.sourceforge.net/DTD/sodipodi-0.dtd"
   xmlns="http://www.w3.org/2000/svg"
   xmlns:svg="http://www.w3.org/2000/svg">
  <defs
     id="defs2" />
  <sodipodi:namedview
     id="namedview2"
     pagecolor="#ffffff"
     bordercolor="#000000"
     borderopacity="0.25"
     inkscape:showpageshadow="2"
     inkscape:pageopacity="0.0"
     inkscape:pagecheckerboard="0"
     inkscape:deskcolor="#d1d1d1"
     inkscape:zoom="5.5582009"
     inkscape:cx="34.813423"
     inkscape:cy="7.5564019"
     inkscape:window-width="1512"
     inkscape:window-height="921"
     inkscape:window-x="0"
     inkscape:window-y="33"
     inkscape:window-maximized="0"
     inkscape:current-layer="svg2" />
  <g
     id="g2">
    <path
       d="m 64.016,24.4885 c -0.501,-0.0014 -1.2112,0.0369 -1.5781,0.0853 -0.367,0.0485 -1.0036,0.1649 -1.4147,0.2588 -0.4111,0.0938 -1.0829,0.2879 -1.4928,0.431 -0.4099,0.1432 -1.124,0.4505 -1.5867,0.683 -0.4626,0.2324 -1.0767,0.5817 -1.3647,0.7762 -0.288,0.1944 -0.7734,0.552 -1.0783,0.7945 -0.305,0.2424 -0.9,0.8026 -1.3222,1.2452 -0.4223,0.4425 -1.001,1.1489 -1.286,1.5695 -0.2851,0.4207 -0.6556,1.0144 -0.8236,1.3194 -0.1679,0.3049 -0.4438,0.8893 -0.613,1.2985 -0.1693,0.4092 -0.4037,1.1 -0.5212,1.5353 -0.1175,0.4353 -0.2708,1.1655 -0.3403,1.6226 -0.0696,0.4572 -0.1259,1.3402 -0.125,1.9621 8e-4,0.622 0.0552,1.4763 0.1207,1.8985 0.0655,0.4222 0.1621,0.9598 0.2145,1.1944 0.0524,0.2346 0.194,0.7335 0.3147,1.1088 0.1206,0.3754 0.4632,1.1816 0.7614,1.7916 0.2981,0.6099 0.8008,1.4673 1.1171,1.9053 0.3161,0.4379 0.9029,1.1308 1.3042,1.5399 0.4012,0.409 0.9984,0.9538 1.3268,1.2106 0.3284,0.2568 0.8467,0.6256 1.1516,0.8196 0.305,0.194 0.8232,0.4868 1.1516,0.651 0.3285,0.1642 0.8274,0.3941 1.1089,0.5106 0.2815,0.1166 0.7804,0.2902 1.1088,0.386 0.3284,0.0958 0.9044,0.2373 1.2797,0.3144 0.3754,0.077 1.0855,0.1695 1.5782,0.2054 0.4926,0.0358 1.0876,0.0529 1.3222,0.0382 0.2345,-0.0148 0.71,-0.0478 1.0566,-0.0736 0.3466,-0.0258 0.9226,-0.1062 1.2797,-0.1789 0.3572,-0.0727 0.9757,-0.2299 1.3745,-0.3492 0.3988,-0.1193 1.1663,-0.4256 1.7059,-0.6806 0.5395,-0.2551 1.2306,-0.624 1.5353,-0.8199 0.3052,-0.1959 0.8233,-0.5662 1.1518,-0.823 0.3285,-0.2568 0.9255,-0.8016 1.3268,-1.2106 0.4013,-0.4091 0.9882,-1.102 1.3046,-1.5399 0.3159,-0.438 0.8186,-1.2954 1.1167,-1.9053 0.2982,-0.61 0.6411,-1.4162 0.7618,-1.7916 0.1201,-0.3753 0.2622,-0.8742 0.3143,-1.1088 0.0527,-0.2346 0.1493,-0.7722 0.2149,-1.1944 0.065,-0.4222 0.1192,-1.2765 0.12,-1.8985 8e-4,-0.6219 -0.0552,-1.5049 -0.1248,-1.9621 -0.0695,-0.4571 -0.2228,-1.1873 -0.3403,-1.6226 -0.1175,-0.4353 -0.3519,-1.1261 -0.5213,-1.5353 -0.1694,-0.4092 -0.4452,-0.9936 -0.6131,-1.2985 -0.1679,-0.305 -0.5387,-0.8987 -0.8234,-1.3194 -0.2853,-0.4206 -0.864,-1.127 -1.2861,-1.5695 -0.4222,-0.4426 -1.017,-1.0028 -1.3222,-1.2452 -0.3047,-0.2425 -0.7857,-0.5972 -1.068,-0.788 C 71.2107,26.5386 70.5966,26.1898 70.1284,25.9542 69.6603,25.7187 68.9396,25.4076 68.5266,25.2628 68.1137,25.1179 67.5187,24.938 67.2044,24.8631 66.8902,24.7882 66.249,24.674 65.7798,24.6092 65.3106,24.5444 64.5169,24.49 64.016,24.4885 Z m -0.4082,7.4187 c 0.2502,0 0.3668,0.0521 0.5026,0.2248 0.175,0.2225 0.1767,0.285 0.174,5.9499 -0.0022,4.5618 -0.0252,5.7549 -0.1135,5.8711 -0.061,0.0803 -0.2051,0.1819 -0.3204,0.2257 -0.1429,0.0543 -0.3144,0.0435 -0.5397,-0.034 -0.1845,-0.0634 -0.56,-0.3363 -0.8501,-0.6181 -0.2857,-0.2777 -1.0348,-0.9902 -1.6645,-1.5836 -1.1451,-1.0787 -1.145,-1.0787 -2.2606,-1.0808 -0.6135,-0.0012 -1.2881,-0.042 -1.4993,-0.0905 -0.2111,-0.0485 -0.4897,-0.1893 -0.6191,-0.3129 -0.1292,-0.1236 -0.2731,-0.3611 -0.3195,-0.5281 -0.0463,-0.1669 -0.0844,-1.0343 -0.0846,-1.9275 -5e-4,-1.5169 0.0121,-1.6487 0.1913,-1.9983 0.1193,-0.2326 0.3046,-0.4331 0.4893,-0.5298 0.2502,-0.131 0.5049,-0.1557 1.6106,-0.1557 1.3135,0 1.3136,10e-5 2.3703,-1.0021 0.5812,-0.5514 1.4055,-1.3192 1.832,-1.7063 0.6867,-0.6231 0.8128,-0.7038 1.1012,-0.7038 z m 6.038,1.1092 c 0.0896,0 0.2561,0.0729 0.3697,0.1623 0.1136,0.0894 0.4042,0.5408 0.6461,1.0033 0.274,0.524 0.5234,1.1623 0.6615,1.6931 0.1336,0.5153 0.24,1.2057 0.2688,1.7475 0.0327,0.6066 0.0055,1.1734 -0.084,1.7556 -0.0727,0.4728 -0.2487,1.1809 -0.3922,1.5732 -0.1432,0.3924 -0.4145,0.973 -0.603,1.2903 -0.1885,0.3174 -0.4275,0.6362 -0.5309,0.7086 -0.1033,0.0724 -0.251,0.1318 -0.328,0.1318 -0.0771,0 -0.2413,-0.0796 -0.3649,-0.1768 -0.1433,-0.1127 -0.2245,-0.2596 -0.2242,-0.4052 3e-4,-0.1255 0.0792,-0.3436 0.1751,-0.4843 0.096,-0.1407 0.2893,-0.4793 0.4299,-0.7523 0.1406,-0.273 0.3297,-0.7335 0.42,-1.0236 0.0902,-0.2899 0.2086,-0.8947 0.2629,-1.3435 0.0751,-0.6191 0.0752,-1.0187 0,-1.6554 -0.0544,-0.4617 -0.1957,-1.1309 -0.314,-1.4872 -0.1183,-0.3562 -0.3696,-0.9162 -0.5583,-1.2446 -0.1887,-0.3284 -0.3638,-0.7003 -0.3891,-0.8262 -0.0344,-0.171 0.0094,-0.2843 0.1729,-0.4478 0.1204,-0.1204 0.292,-0.2188 0.3817,-0.2188 z m -2.503,1.8765 c 0.1058,0 0.2865,0.0743 0.4017,0.1649 0.1152,0.0906 0.3347,0.4364 0.4878,0.7685 0.153,0.3321 0.3347,0.9199 0.4039,1.3065 0.0837,0.4673 0.1071,0.9175 0.0696,1.3428 -0.031,0.3519 -0.1496,0.936 -0.2636,1.298 -0.114,0.3619 -0.3325,0.8225 -0.4855,1.0235 -0.2235,0.2938 -0.3381,0.3708 -0.5845,0.3917 -0.2481,0.021 -0.3409,-0.018 -0.487,-0.2037 -0.0992,-0.1261 -0.1802,-0.2763 -0.1802,-0.3338 0,-0.0574 0.1123,-0.3149 0.2496,-0.5722 0.1373,-0.2573 0.3148,-0.6921 0.3945,-0.9662 0.1086,-0.3738 0.135,-0.7042 0.1053,-1.3228 -0.0357,-0.7404 -0.0728,-0.8918 -0.3626,-1.4783 -0.1776,-0.3593 -0.323,-0.7558 -0.323,-0.8815 0,-0.1335 0.0794,-0.2925 0.1909,-0.3828 0.1049,-0.0849 0.2773,-0.1546 0.3831,-0.1546 z"
       fill="#000000"
       fill-opacity="0.85"
       id="path1"
       style="display:inline" />
    <path
       d="M40.3443 1.18634C20.1464 1.18634 11.3598 1.24557 10.684 1.38602C10.156 1.4958 9.21454 1.83328 8.5919 2.13573C7.96922 2.43815 7.14731 3.02412 6.7656 3.43826C6.38389 3.85239 5.86301 4.63626 5.60827 5.1801C5.35352 5.72397 5.05438 6.60126 4.94327 7.12934C4.80393 7.79185 4.74134 12.8579 4.74134 23.4724C4.74134 34.0029 4.80451 39.1582 4.9416 39.8155C5.05173 40.3436 5.37629 41.2734 5.66303 41.882C5.96792 42.529 6.52985 43.3069 7.01635 43.7553C7.47393 44.1771 8.22949 44.6927 8.69544 44.901C9.16139 45.1093 9.95045 45.3804 10.4487 45.5035C11.1474 45.6761 17.9652 45.7302 40.2536 45.7399C44.7078 45.7419 48.498 45.7424 51.7249 45.7406L51.7249 45.7406C50.956 44.488 50.3815 43.1262 50.021 41.7014C47.2954 41.7052 44.1798 41.7084 40.6162 41.7122C25.0206 41.7292 12.0518 41.6793 11.7969 41.6013C11.5419 41.5233 11.1345 41.3568 10.8911 41.2313C10.6479 41.1058 10.2247 40.7943 9.95092 40.5389C9.67715 40.2836 9.28983 39.6381 9.09023 39.1046C8.73827 38.1638 8.72741 37.6982 8.72741 23.5891C8.72741 11.0072 8.76515 8.9161 9.00695 8.10186C9.16073 7.5841 9.5315 6.88147 9.83085 6.54059C10.1301 6.19966 10.7585 5.7729 11.2272 5.59205C12.0374 5.27945 13.4741 5.26313 40.3443 5.26313C63.4638 5.26313 68.7337 5.30733 69.2932 5.50535C69.6694 5.63844 70.2236 5.95427 70.5244 6.20735C70.8252 6.46051 71.2512 7.00391 71.4711 7.41493C71.8707 8.1622 71.8707 8.16228 71.8707 23.4724C71.8707 24.304 71.8707 25.0905 71.8701 25.8348L71.8701 25.8348C73.5088 26.8677 74.9245 28.2177 76.0346 29.8054C76.0372 28.0412 76.0379 25.9525 76.0379 23.4724C76.0379 9.34797 76.01 7.88121 75.7246 6.84892C75.552 6.22629 75.2408 5.38224 75.0323 4.9736C74.8237 4.56493 74.321 3.87054 73.9155 3.43026C73.495 2.97406 72.7015 2.40548 72.0713 2.10833C71.4624 1.82159 70.5327 1.49673 70.0046 1.3866C69.3271 1.24532 60.5971 1.18634 40.3443 1.18634ZM17.231 11.6953C15.6886 11.6953 15.4476 11.7394 15.1423 12.0768C14.8523 12.3972 14.7971 12.7419 14.7971 14.232C14.7971 15.7221 14.8523 16.0668 15.1423 16.3872C15.4494 16.7266 15.6874 16.7683 17.3023 16.7683C18.7367 16.7683 19.1865 16.7055 19.4484 16.4685C19.7304 16.2133 19.7799 15.8776 19.7799 14.214C19.7799 12.3995 19.7509 12.239 19.3771 11.9772C19.0804 11.7694 18.5157 11.6953 17.231 11.6953ZM26.4905 11.6953C24.8672 11.6953 24.6488 11.7352 24.3165 12.0919C23.9968 12.4351 23.9471 12.7274 23.9471 14.2659C23.9471 15.802 23.9962 16.0929 24.3094 16.406C24.6234 16.7201 24.9134 16.7683 26.4837 16.7683C28.054 16.7683 28.3437 16.7201 28.6577 16.406C28.9718 16.092 29.0203 15.8023 29.0203 14.232C29.0203 12.6617 28.9718 12.3717 28.6577 12.0577C28.3439 11.7438 28.0538 11.6953 26.4905 11.6953ZM35.711 11.6953C34.1539 11.6953 33.8635 11.744 33.5498 12.0577C33.2337 12.3738 33.1876 12.6615 33.1876 14.3122C33.1876 16.0621 33.2176 16.2256 33.59 16.4865C33.8869 16.6944 34.4463 16.7678 35.719 16.7658C36.6684 16.7642 37.5349 16.7029 37.6445 16.6297C37.7542 16.5565 37.9379 16.3185 38.0525 16.1008C38.1671 15.8831 38.2608 15.0177 38.2608 14.1775C38.2608 12.9065 38.1975 12.5699 37.885 12.1726C37.5244 11.7142 37.4384 11.6953 35.711 11.6953ZM44.7914 11.6953C43.2285 11.6953 42.9883 11.7388 42.6824 12.0768C42.3925 12.3972 42.3372 12.7419 42.3372 14.232C42.3372 15.7221 42.3925 16.0668 42.6824 16.3872C42.9903 16.7274 43.227 16.7683 44.8739 16.7683C46.5207 16.7683 46.7574 16.7274 47.0653 16.3872C47.3562 16.0657 47.4105 15.7214 47.4105 14.1969C47.4105 12.5145 47.3807 12.3638 46.9828 12.0417C46.6272 11.7537 46.258 11.6953 44.7914 11.6953ZM54.0239 11.6953C52.4536 11.6953 52.1636 11.7436 51.8496 12.0577C51.5355 12.3717 51.4873 12.6617 51.4873 14.232C51.4873 15.8023 51.5355 16.092 51.8496 16.406C52.1636 16.7201 52.4536 16.7683 54.0239 16.7683C55.5941 16.7683 55.8841 16.7201 56.1982 16.406C56.5122 16.092 56.5605 15.8023 56.5605 14.232C56.5605 12.6617 56.5122 12.3717 56.1982 12.0577C55.8841 11.7436 55.5941 11.6953 54.0239 11.6953ZM63.2512 11.6953C61.694 11.6953 61.4037 11.744 61.09 12.0577C60.7739 12.3738 60.7277 12.6615 60.7277 14.3122C60.7277 16.0621 60.7581 16.2256 61.1305 16.4865C61.4274 16.6944 61.9868 16.7678 63.2594 16.7658C64.2089 16.7642 65.0754 16.7029 65.185 16.6297C65.2946 16.5565 65.4781 16.3185 65.5927 16.1008C65.7072 15.8831 65.8009 15.0177 65.8009 14.1775C65.8009 12.9065 65.738 12.5699 65.4255 12.1726C65.0649 11.7142 64.9786 11.6953 63.2512 11.6953ZM17.3186 20.9358C15.8882 20.9358 15.3929 21.0001 15.1796 21.2134C15.0269 21.3661 14.8489 21.7743 14.7839 22.1205C14.719 22.4668 14.6985 23.3301 14.7386 24.039C14.8006 25.1368 14.8767 25.3806 15.2515 25.6841C15.6362 25.9956 15.9162 26.0327 17.4786 25.9793C18.9961 25.9275 19.3047 25.8652 19.5228 25.5666C19.7039 25.3187 19.7799 24.6813 19.7799 23.4065C19.7799 21.9782 19.7166 21.5287 19.4797 21.267C19.2263 20.987 18.8918 20.9358 17.3186 20.9358ZM26.5462 20.9358C24.9134 20.9358 24.625 20.9824 24.3094 21.2981C23.9957 21.6118 23.9471 21.9022 23.9471 23.4593C23.9471 25.1867 23.9659 25.2727 24.4243 25.6333C24.8216 25.9458 25.1584 26.009 26.4295 26.009C27.2697 26.009 28.1351 25.9151 28.3528 25.8005C28.5705 25.6859 28.8084 25.5025 28.8817 25.3929C28.9549 25.2832 29.0159 24.3846 29.0175 23.3959C29.0197 21.9748 28.9575 21.5289 28.7205 21.267C28.4668 20.9867 28.1319 20.9358 26.5462 20.9358ZM35.693 20.9358C34.2325 20.9358 33.7813 20.998 33.5187 21.2356C33.239 21.4887 33.188 21.8205 33.1903 23.3646C33.1919 24.3706 33.2529 25.2821 33.3261 25.3903C33.3994 25.4985 33.6223 25.6795 33.8217 25.7925C34.021 25.9056 34.901 26.0003 35.7775 26.0033C37.2317 26.0084 37.4102 25.9701 37.816 25.5643C38.2261 25.1542 38.2608 24.9847 38.2608 23.39C38.2608 21.9021 38.2099 21.6098 37.8982 21.2981C37.5833 20.9832 37.2943 20.9358 35.693 20.9358ZM44.8587 20.9358C43.4283 20.9358 42.9331 21.0001 42.7198 21.2134C42.5671 21.3661 42.3891 21.7743 42.3241 22.1205C42.2592 22.4668 42.2387 23.3301 42.2788 24.039C42.3398 25.1187 42.4199 25.3832 42.7722 25.6684C43.1086 25.9408 43.4949 26.009 44.701 26.009C45.5305 26.009 46.4103 25.9325 46.6562 25.839C46.9395 25.7313 47.183 25.4272 47.3212 25.0086C47.443 24.6394 47.5095 23.7625 47.472 23.0203C47.4226 22.0403 47.3155 21.5934 47.0627 21.3141C46.7578 20.9771 46.5163 20.9358 44.8587 20.9358ZM54.0863 20.9358C52.4536 20.9358 52.1652 20.9824 51.8496 21.2981C51.5358 21.6118 51.4873 21.9022 51.4873 23.4593C51.4873 25.1867 51.5061 25.2727 51.9645 25.6333C52.3617 25.9458 52.6986 26.009 53.9696 26.009C54.8098 26.009 55.6753 25.9151 55.8929 25.8005C56.1106 25.6859 56.3487 25.5025 56.4218 25.3929C56.495 25.2832 56.5561 24.3846 56.5576 23.3959C56.5598 21.9748 56.4977 21.5289 56.2606 21.267C56.007 20.9867 55.6721 20.9358 54.0863 20.9358ZM63.2332 20.9358C61.7726 20.9358 61.3218 20.998 61.0592 21.2356C60.7795 21.4887 60.7282 21.8205 60.7305 23.3646C60.7308 23.5805 60.7338 23.7919 60.7391 23.9922L60.7391 23.9922C61.8454 23.728 62.979 23.5945 64.1164 23.5945L64.1164 23.5945C64.6791 23.5945 65.2414 23.6272 65.8003 23.6923C65.8008 23.5976 65.801 23.4971 65.801 23.39C65.801 21.9021 65.7504 21.6098 65.4386 21.2981C65.1237 20.9832 64.8345 20.9358 63.2332 20.9358ZM40.2385 29.9951C30.4244 29.9951 25.2527 30.0587 24.9247 30.1834C24.6523 30.2869 24.3236 30.511 24.1941 30.6815C24.0466 30.8757 23.9564 31.5466 23.9528 32.4778C23.9496 33.2953 24.0421 34.1729 24.1585 34.4282C24.2819 34.699 24.6025 34.96 24.9284 35.0547C25.2356 35.1438 32.0919 35.224 40.1644 35.2329C44.0186 35.2372 47.3287 35.2282 49.8743 35.2078L49.8743 35.2078C50.2531 33.3643 50.9862 31.6117 52.0329 30.0476C49.5339 30.0115 45.6735 29.9951 40.2385 29.9951ZM17.7784 30.0099C17.4348 30.0015 17.0473 30.0062 16.699 30.0259C15.8113 30.0761 15.3385 30.1913 15.1183 30.4116C14.8908 30.6391 14.7845 31.1071 14.734 32.1069C14.6957 32.8666 14.7569 33.7965 14.8698 34.1734C15.015 34.658 15.22 34.9118 15.5702 35.0398C15.8425 35.1393 16.6105 35.2273 17.2767 35.2353C17.9428 35.2431 18.7157 35.1628 18.9943 35.0569C19.2728 34.951 19.5623 34.7676 19.6375 34.6492C19.7128 34.5309 19.7755 33.6042 19.777 32.5899C19.7792 31.1722 19.7154 30.6815 19.502 30.4681C19.3493 30.3154 18.9413 30.1374 18.5951 30.0724C18.422 30.0399 18.1221 30.0184 17.7784 30.0099Z"
       fill="black"
       fill-opacity="0.85"
       id="path2" />
  </g>
</svg>
